<?xml version="1.0" encoding="utf-8"?>
<!-- Generator: Adobe Illustrator 23.0.1, SVG Export Plug-In . SVG Version: 6.00 Build 0)  -->
<svg version="1.1" id="OBJECTS" xmlns="http://www.w3.org/2000/svg" xmlns:xlink="http://www.w3.org/1999/xlink" x="0px" y="0px"
	 viewBox="0 0 261.7 259.6" style="enable-background:new 0 0 261.7 259.6;" xml:space="preserve">
<style type="text/css">
	.st0{fill-rule:evenodd;clip-rule:evenodd;fill:#EDEEF7;}
	.st1{fill-rule:evenodd;clip-rule:evenodd;fill:#D6D7F2;}
	.st2{fill-rule:evenodd;clip-rule:evenodd;fill:#3C3C6D;}
	.st3{fill:none;}
	.st4{fill-rule:evenodd;clip-rule:evenodd;fill:#56548C;}
	.st5{fill-rule:evenodd;clip-rule:evenodd;fill:#46467C;}
	.st6{fill-rule:evenodd;clip-rule:evenodd;fill:#F9FBFC;}
	.st7{fill-rule:evenodd;clip-rule:evenodd;fill:#FBD15B;}
	.st8{fill-rule:evenodd;clip-rule:evenodd;fill:#EABD4E;}
	.st9{fill:#3C3C6D;}
	.st10{fill-rule:evenodd;clip-rule:evenodd;fill:#FFC8AF;}
	.st11{fill-rule:evenodd;clip-rule:evenodd;fill:#EC827D;}
	.st12{fill:#83C9FF;}
	.st13{fill:#878CF0;}
	.st14{fill:#A8B0F4;}
	.st15{fill-rule:evenodd;clip-rule:evenodd;fill:#BEE1F4;}
	.st16{fill-rule:evenodd;clip-rule:evenodd;fill:#112B46;}
	.st17{fill:#F9FBFC;}
	.st18{fill:#A5B7C6;}
	.st19{fill:#56548C;}
	.st20{fill:#FBD15B;}
	.st21{fill:#FFC8AF;}
	.st22{fill-rule:evenodd;clip-rule:evenodd;fill:#DCE6EA;}
	.st23{fill-rule:evenodd;clip-rule:evenodd;fill:#DD6F6F;}
	.st24{fill-rule:evenodd;clip-rule:evenodd;fill:#D66565;}
	.st25{fill-rule:evenodd;clip-rule:evenodd;fill:#606BF1;}
	.st26{fill-rule:evenodd;clip-rule:evenodd;fill:#2B3BBD;}
	.st27{fill:#FFFFFF;}
	.st28{clip-path:url(#XMLID_2_);}
	.st29{fill:#B1B2F3;}
</style>
<g>
	<g>
		<path id="XMLID_552_" class="st0" d="M20.3,183.5c-6.5-11.4-9-24.8-7.9-37.8c0.6-6.8,2.2-13.7,4.9-19.9c2.6-5.9,6.1-11.4,5.8-18.1
			c-0.3-6.6-4.2-13.2-2.1-19.4C24.9,76.8,42.4,76.5,51.7,72C65,65.7,68.1,53,75.1,41.4c7-11.6,17.6-21.2,30.3-25.8
			c12.7-4.6,27.5-4,39.3,2.6c5.8,3.3,9.5,7.3,12.4,13.2c2.2,4.5,4.4,9.3,8.5,12c5.1,3.5,11.5,2.4,17.3,2.9
			c13.2,1.1,26.4,5.8,36.3,14.7c4.8,4.3,8.6,9.6,11.2,15.5c2.5,5.8,3.8,12.4,7.6,17.7c3.7,5,9.5,8.1,13,13.3
			c4.5,6.8,0.7,14.2,1.7,21.6c1.6,11.8,11.3,28.2,2.9,39.4c-3.4,4.5-8.3,4.1-13.4,4c-6.7,0-13.9-0.5-20.3-2.6
			c-5.5-1.8-10.9-4-16.7-4.2c-4.3-0.2-8.6-0.5-12.9-0.6c-2.8,0-5.6,0.8-8.4,1c-5.8,0.6-11.7,1.2-17.5,1.8c-13,1.4-25.9,2.7-38.9,4.1
			c-24.7,2.6-49.4,5.2-74.2,7.8c-8,0.8-16,1.7-24,2.5C28.6,182.6,20.6,184,20.3,183.5z"/>
		<path id="XMLID_551_" class="st1" d="M210.8,221.4c-7.3,3-14.9,5.6-21.9,9.4c-8.8,4.8-16.1,11-26.1,13.6
			c-6.7,1.7-13.9,1.7-20.8,2.6c-7.5,1-15.1,2.3-22.7,2.8c-0.5,0-0.9,0.1-1.4,0.1c-2.4,0.1-4.7,0.2-7.1,0.3c-0.5,0-0.9,0-1.4,0
			c-0.5,0-0.9,0-1.4,0c-0.5,0-1,0-1.5,0c-29.2,0.1-60-5.3-83.9-23c-3.5-2.6-7-5.6-8.9-9.5c-1.6-3.3-2-7.1-2.8-10.8
			c-0.9-4.2-2.6-7.9-5.9-10.7c-4.5-3.7-6.6-5.6-4.2-11.7c7.4-19.2,21.5-35.5,38.2-47.5c23.3-16.7,51.8-26.2,79.9-30.9
			c15.7-2.6,31.6-3.6,47.5-2.8c3.8,0.2,7.6,0.5,11.4,0.9c3.6,0.4,7.2,1.3,10.8,1.2c9-0.3,18.6,1.4,27.3,4c5.7,1.7,14.3,3.5,16.8,9.8
			c0.8,2,1.7,3.8,3.1,5.6c2,2.6,5.3,2.9,7.9,4.4c2.9,1.7,5.5,4,7.5,6.7c2.9,3.9,4.5,8.6,5.3,13.4c1.4,7.5,2,16.1,0.1,23.5
			c-1.9,7.5-5.6,14.5-10.2,20.7c-8.1,10.9-18.4,19.9-30.7,25.6C214.2,220,212.5,220.7,210.8,221.4z"/>
		<g id="XMLID_48_">
			<path id="XMLID_550_" class="st2" d="M192.2,172.3c-0.7-0.7-2.7-0.1-6.7-1.2s-8.1-0.4-8.7,0.6c-0.7,1,4.4,4.7,6.3,5
				c1.9,0.3,3.1,3,5.7,2.9c2.6,0,3.9-2.1,3.9-2.1L192.2,172.3z"/>
			<path id="XMLID_549_" class="st2" d="M79.7,209.4c0,0,7.7,1.8,10.2,1.8c2.5,0,4.6,1.8,3.1,3.5c-1.6,1.7-4.4,3.1-7.9,3.3
				c-3.5,0.2-8.4,0.6-10.5,0.3c-1.3-2.3-1.4-7.1-1.4-7.1L79.7,209.4z"/>
			<path id="XMLID_548_" class="st2" d="M171.3,181.8c0,0-7.7,1.8-10.2,1.8c-2.5,0-4.6,1.8-3.1,3.5c1.6,1.7,4.4,3.1,7.9,3.3
				c3.5,0.2,8.4,0.6,10.5,0.3c1.3-2.3,1.4-7.1,1.4-7.1L171.3,181.8z"/>
			<path id="XMLID_547_" class="st2" d="M58.3,203.7c0.7-0.7,2.7-0.1,6.7-1.2c4-1.1,8.1-0.4,8.8,0.6c0.7,1-4.4,4.7-6.3,5
				c-1.9,0.3-3.1,3-5.7,2.9c-2.6,0-3.9-2.1-3.9-2.1L58.3,203.7z"/>
			<g id="XMLID_531_">
				<line id="XMLID_546_" class="st3" x1="56.1" y1="212.1" x2="56.1" y2="212"/>
				<g id="XMLID_537_">
					<path id="XMLID_545_" class="st2" d="M56.8,218.2c0,0.2-0.1,0.4-0.3,0.6c-0.3,0.3-0.6,0.5-1.1,0.6c-0.6,0.2-1.4,0.2-2.1,0
						l-8.8-2.3c-1.5-0.4-3.1,0.1-3.5,1l-1.9,5.4c-0.2,0.7-1.3,1.1-2.4,1.1c-0.1,0-0.3,0-0.4,0c-0.8-0.1-1.4-0.3-1.8-0.7
						c-0.2-0.2-0.3-0.4-0.3-0.6v0c0-0.1,0-0.2,0-0.3l0.7-3.8l0.3-1.7c0.2-0.9-1.2-1.7-2.8-1.6l-9.7,0.6c-0.1,0-0.2,0-0.3,0
						c-0.4,0-0.8-0.1-1.1-0.2c-0.7-0.2-1.2-0.6-1.3-1.1c-0.2-0.8,0.6-1.5,1.9-1.6l9.5-1.1c0.4,0,0.8-0.2,1.1-0.3
						c0.8-0.4,1.2-1.1,0.7-1.7l-3.4-4.2l-0.7-0.9c-0.1-0.2-0.2-0.3-0.2-0.5c0,0,0-0.1,0-0.1c0-0.5,0.5-1,1.3-1.3
						c1.2-0.3,2.6-0.1,3.3,0.6l4.8,4.9c0.8,0.8,2.7,1,3.8,0.4l7.1-3.8c0.5-0.3,1.1-0.4,1.7-0.4c0.6,0,1.3,0.1,1.8,0.4
						c0.5,0.3,0.8,0.7,0.7,1.1c0,0.3-0.2,0.6-0.6,0.9l-0.6,0.4l-5.9,3.8c-1.1,0.7-0.8,1.7,0.6,2.2c0,0,0,0,0.1,0l8.4,2.8
						C56.4,217.3,56.8,217.7,56.8,218.2z"/>
					<path id="XMLID_544_" class="st2" d="M32.7,212.5l-3.4-4.2c-0.1-0.2-0.2-0.3-0.2-0.5v-2.5c0,0.2,0.1,0.3,0.2,0.5l0.7,0.9
						l3.4,4.2C33.9,211.4,33.5,212.1,32.7,212.5z"/>
					<path id="XMLID_543_" class="st2" d="M49.3,212.7c0,0,0-0.1,0-0.1c0,0,0-0.1,0-0.1V212.7z"/>
					<path id="XMLID_542_" class="st2" d="M35.4,217.7l-0.3,1.7c-0.5-0.5-1.4-0.8-2.4-0.7l-9.7,0.6c-0.1,0-0.2,0-0.3,0
						c-1.2,0-2.3-0.5-2.5-1.2v-2.6c0.1,0.5,0.6,0.8,1.3,1.1c0.3,0.1,0.7,0.2,1.1,0.2c0.1,0,0.2,0,0.3,0l9.7-0.6
						C34.2,216,35.6,216.8,35.4,217.7z"/>
					<path id="XMLID_541_" class="st2" d="M40.4,222.5v0.5C40.4,222.8,40.4,222.7,40.4,222.5z"/>
					<path id="XMLID_540_" class="st2" d="M56.8,218.2v2.6c0,0.2-0.1,0.4-0.3,0.6c-0.6,0.7-2,1-3.2,0.7l-8.8-2.3
						c-1.5-0.4-3.1,0.1-3.5,1l-1.9,5.4c-0.2,0.7-1.3,1.1-2.4,1.1c-0.1,0-0.3,0-0.4,0c-1.2-0.1-2-0.6-2.1-1.3c0,0,0-0.1,0-0.3v-2.3
						c0,0.2,0.2,0.4,0.3,0.6c0.4,0.4,1,0.6,1.8,0.7c0.1,0,0.3,0,0.4,0c1.2,0,2.2-0.5,2.4-1.1l1.9-5.4c0.3-0.9,2-1.4,3.5-1l8.8,2.3
						c0.7,0.2,1.5,0.2,2.1,0c0.5-0.1,0.8-0.3,1.1-0.6C56.8,218.7,56.8,218.5,56.8,218.2z"/>
					<path id="XMLID_539_" class="st2" d="M53.7,207v2.5c0,0.3-0.2,0.7-0.6,1l-5.9,3.7c-1.3-0.5-1.6-1.5-0.6-2.2l5.9-3.8l0.6-0.4
						C53.4,207.6,53.7,207.3,53.7,207z"/>
					<line id="XMLID_538_" class="st3" x1="49.3" y1="212.7" x2="49.3" y2="212.7"/>
				</g>
				<path id="XMLID_536_" class="st2" d="M56.7,222.9c-0.1,1.2-1.1,2.1-2.4,2c-1.2-0.1-2.1-1.1-2.1-2.3c0.1-1.2,1.1-2.1,2.4-2
					C55.8,220.7,56.8,221.7,56.7,222.9z"/>
				<path id="XMLID_535_" class="st2" d="M39,228.4c-0.1,1.2-1.1,2.1-2.4,2c-1.2-0.1-2.1-1.1-2.1-2.3c0.1-1.2,1.1-2.1,2.4-2
					C38.2,226.2,39.1,227.2,39,228.4z"/>
				<path id="XMLID_534_" class="st2" d="M24.6,220.5c-0.1,1.2-1.1,2.1-2.4,2c-1.2-0.1-2.1-1.1-2.1-2.3c0.1-1.2,1.1-2.1,2.4-2
					C23.8,218.2,24.7,219.3,24.6,220.5z"/>
				<path id="XMLID_533_" class="st2" d="M32.7,211.2c-0.1,1.2-1.1,2.1-2.4,2c-1.2-0.1-2.1-1.1-2.1-2.3c0.1-1.2,1.1-2.1,2.4-2
					C31.9,208.9,32.8,210,32.7,211.2z"/>
				<path id="XMLID_532_" class="st2" d="M54.5,212.2c-0.1,1.2-1.1,2.1-2.4,2c-1.2-0.1-2.1-1.1-2.1-2.3c0.1-1.2,1.1-2.1,2.4-2
					C53.6,209.9,54.5,211,54.5,212.2z"/>
			</g>
			<path id="XMLID_530_" class="st4" d="M42.1,215.5c0,2.9-6.2,2.3-6.2,0v-20.3h6.2V215.5z"/>
			<path id="XMLID_529_" class="st2" d="M34.5,176.8c0,0,17.8-6.1,25.4-5.2c7.5,0.9,5.9,33.5,5.9,33.5s-4,0.7-8,0
				c-1.7-9.1-4.4-19-4.4-19s-16.4,4.7-18.8,2.4C32.1,186.1,34.5,176.8,34.5,176.8z"/>
			<path id="XMLID_528_" class="st2" d="M34.5,176.8c0,0,17.8-6.1,25.4-5.2c7.5,0.9,5.9,33.5,5.9,33.5c-0.6,1.2-5.5,3.8-8,0
				c-1.7-9.1-4.4-19-4.4-19s-16.4,4.7-18.8,2.4C32.1,186.1,34.5,176.8,34.5,176.8z"/>
			<g id="XMLID_525_">
				<path id="XMLID_527_" class="st4" d="M63.6,195.1c-1.6,1.5-20.5,12-24.1,13.9c-0.4,0.2-1,0.3-1.4,0c0,0,0,0,0,0l0,0
					c-2-1.3-3-5.7,0.8-8.5c1.1-0.8,21.3-14.4,24.5-13.5h0c0,0,0.1,0,0.1,0c0.1,0,0.2,0.1,0.3,0.2C65.5,188.4,65.3,193.5,63.6,195.1z
					"/>
				<path id="XMLID_526_" class="st2" d="M63.5,186.9c-3.2-0.9-23.4,12.7-24.5,13.5c-3.8,2.8-2.8,7.3-0.8,8.5l-22.4-13l-0.8-0.4l0,0
					c-1.8-1.5-2.5-5.6,1.2-8.3c1.1-0.8,21.8-14.7,24.6-13.4l0.2,0.1L63.5,186.9z"/>
			</g>
			<g id="XMLID_522_">
				<path id="XMLID_524_" class="st2" d="M113.3,94.7c-0.6-4.8-2.8-33.7-7.1-37c0,0-2.9-3.1-4.2-1.8l0,0l-21,12.1l1,13.1l9.1,29.9
					l20.4-11.8l0,0C112.8,99,113.6,97.2,113.3,94.7z"/>
				<path id="XMLID_523_" class="st5" d="M85,70c4.2,3.3,6.5,32.2,7.1,37c0.6,4.8-2.8,6.7-5.9,1.8c-3.1-4.9-5.9-32.4-5.9-38.2
					C80.2,64.9,85,70,85,70z"/>
			</g>
			<path id="XMLID_521_" class="st6" d="M119.1,54.2c-5.9-0.3-15.9,6.7-20.4,12.4c-4.5,5.7-1.7,11.9-0.2,18
				c1.5,6.1-0.8,21.4-0.8,22.9c6.9,4.7,23.7,5.3,25.6-1.5c0.8-7.5-4.7-15.4-4.7-19.8C118.8,76.6,126.8,57,119.1,54.2z"/>
			<path id="XMLID_520_" class="st7" d="M113.9,55.5c3.1,13.3,2.1,27.7,1.4,33.3c-0.7,5.6-0.8,24.4-0.8,24.4
				c4.5-2.3,6.7-6.5,6.8-8.5c0.1-1.9-1.7-18.2-1.5-19.5c0.1-1.3,2.4-13.9,2.2-20.7c-0.2-6.8-2.8-7.8-2.8-7.8l-5.8-2.6L113.9,55.5z"
				/>
			<path class="st7" d="M114.4,58.9l0.8,0.3c-0.1,0.4-0.2,0.8-0.2,1.3c0-0.1,0-0.2-0.1-0.2L114.4,58.9z"/>
			<path id="XMLID_519_" class="st7" d="M105.4,56.9c4.5,9.7,2.3,18.6,2.1,26.5c-0.2,8-4.3,30.3-4.3,30.3c-7.9-2-8.9-7.3-10.4-10
				c-3.7-18.6,1-33.7,4.4-39.3C99.9,60,105.4,56.9,105.4,56.9z"/>
			<path class="st8" d="M100.4,69.2c-7.3-1.8-3.6,15.5,0,22.3c1.8,3.5,3.3,5.5,5.5,6.6c0.7-4.7,1.4-9.5,1.6-12.8
				C105.6,79.1,104.2,71.1,100.4,69.2z"/>
			<polygon id="XMLID_517_" class="st9" points="70.2,132.2 74.3,129.3 75.7,129.3 75.1,130.2 70.7,133.2 			"/>
			<g id="XMLID_510_">
				<path id="XMLID_516_" class="st2" d="M63.7,118.6c-0.6-4.8-2.8-33.7-7.1-37c0,0-2.9-3.1-4.2-1.8l0,0L31.4,92l1,13.1l9.1,29.9
					l20.4-11.8l0,0C63.2,122.9,64,121.2,63.7,118.6z"/>
				<path id="XMLID_515_" class="st5" d="M35.3,94c4.2,3.3,6.5,32.2,7.1,37c0.6,4.8-2.8,6.7-5.9,1.8c-3.1-4.9-5.9-32.4-5.9-38.2
					C30.5,88.9,35.3,94,35.3,94z"/>
			</g>
			<path id="XMLID_509_" class="st2" d="M195.7,21.6c-4.9,2.4-13.9,22.2-12.4,26.9c1.5,4.6,5.7,2.1,8.6-2c3.9-5.6,7.9-17.8,7.4-20.9
				C198.8,22.5,195.7,21.6,195.7,21.6z"/>
			<g id="XMLID_491_">
				<g id="XMLID_495_">
					<g id="XMLID_497_">
						<path id="XMLID_508_" class="st4" d="M196.9,124.3c0,0-7.6,8.8-9.6,9.4c-2,0.6-0.2,2.7,1.4,2.8s6.5-0.1,7.9-1.5
							c1.4-1.4,5.5-2.9,5.5-2.9c0-4.6-1.1-7.5-1.1-7.5L196.9,124.3z"/>
						<path id="XMLID_507_" class="st2" d="M194.2,61.8c0,0-1,19.6-0.6,26c0.4,6.4,1.9,38.3,1.9,38.3c4.1,0.9,6.8,0,6.8,0
							c1.4-24.4,1.3-31.5,1.7-35.1c0.4-3.6,0.9-14.2,0.9-14.2c2.9-6-0.1-13.9-1.6-15.8C201.9,59.1,194.2,61.8,194.2,61.8z"/>
						<path id="XMLID_506_" class="st4" d="M209.2,132.7c-0.3,3.6-1.5,7.8-1.9,9.9s0.4,3.4,0.9,4.1c0.5,0.7,6.5-1.3,7.4-3.6
							c0.8-2.3-0.9-4.4-1-8.7C212.7,130.8,209.2,132.7,209.2,132.7z"/>
						<path id="XMLID_505_" class="st2" d="M200.5,63.3c0,0,1,17.8,2.7,23.8c1.6,5.9,3.1,23.3,3.8,26.4c0.7,3,1.6,21.8,1.6,21.8
							c3.8,0.9,6.7,0,6.7,0c-0.1-17.6,0.3-31.8,0-36.6c-0.3-4.8,0.1-19.1,0.1-19.1c1.6-6.6,1.7-7.5,0-11.9
							C213.8,63.2,206.7,59.7,200.5,63.3z"/>
						<path id="XMLID_504_" class="st6" d="M197.1,21c5.5-0.2,18.1,2.6,22.3,7.9c4.2,5.3-1.9,14.7-3.3,20.4s0.7,19.9,0.7,21.2
							c-6.5,4.3-22.1,4.8-23.8-1.6c-0.7-7,0.9-15.2,1-19.3C193.6,40.9,189.8,23.6,197.1,21z"/>
						<path id="XMLID_503_" class="st2" d="M201.8,22.3c-3.5,12.3-4.3,26.2-4,31.4c0.3,5.2,0.5,22.2,0.5,22.2
							c-4.1-2.2-5.9-6.1-5.9-7.9c0-1.8,1.5-17.1,1.5-18.4c0-1.2-2.1-15.3-1.5-21.6c0.6-6.3,4.7-7,4.7-7h5.3L201.8,22.3z"/>
						<path id="XMLID_502_" class="st2" d="M198.4,7.4c-2.4,0.8,0,6.2,0,6.2V7.4z"/>
						<path id="XMLID_501_" class="st10" d="M198.2,8.1c0,0-0.9,3.2-0.6,5.7s0.6,7.4,2.8,9c2.2,1.6,5.4-0.3,7.5-2
							c2.1-1.8,4.3-5.1,4.4-9c0-4-1.5-8.8-7.2-8.6C199.3,3.5,198.2,8.1,198.2,8.1z"/>
						<path id="XMLID_500_" class="st10" d="M209.3,17.3c0,0-0.4,5.1,0.9,7c0.1,1.3-3.5,6.6-7.1,5.7c-2.1-0.5-1.8-3-1.8-3
							c0.2-1.9,0-6.3,0-6.3L209.3,17.3z"/>
						<path id="XMLID_499_" class="st2" d="M196.8,3.9c-0.8,2.9,0.1,4,2.6,4.8c2.5,0.8,9.1-1.1,9.1-1.1c-0.4,3.1,0.5,4.8,0.5,4.8
							c1.1-3.1,2.1-1.5,2.2,1c0.1,2.5-1.3,2.4-1.3,2.4c0.1,2.1,0.8,2.8,0.8,2.8c2.7-1.8,6.3-14.1,1.5-14.4
							C212.1-0.1,198.6-2.4,196.8,3.9z"/>
						<path id="XMLID_498_" class="st2" d="M210.5,23.5c-4.3,9-6.5,17.1-6.3,24.5c0.1,7.4,1.7,28.9,1.7,28.9
							c7.4-1.8,12.4-3.9,13.8-6.4c-3.2-8.3-4.3-13.9-3.7-16.3c0.6-2.4,6.2-20.4,3.3-25.8C216.5,25.5,210.5,23.5,210.5,23.5z"/>
					</g>
					<path id="XMLID_496_" class="st6" d="M209.5,22.3c0,0.2,0.9,1.2,0.9,1.2s-1.8,4-2.5,5.8c-0.7,1.8-2.4,3.3-2.4,3.3l-2.4-2.6
						C206.4,28.2,209.5,22.3,209.5,22.3z"/>
				</g>
				<path id="XMLID_494_" class="st6" d="M201.6,23.6c0.2-0.3,0.7,5,1.5,6.4c-1.5,1.4-2.4,1.8-2.4,1.8S199.8,25.8,201.6,23.6z"/>
				<path id="XMLID_493_" class="st11" d="M203.4,29.8l-2,1.3c0.5,1.6,0.5,2.7,0.5,2.7h1.9l1.4-2L203.4,29.8z"/>
				<path id="XMLID_492_" class="st11" d="M201.8,33.8c-2.8,14.7-2.5,23.8-2.5,23.8l1.4,4.1l3.1-4.5c0,0-2.3-17.3-0.1-23.3
					C202.5,33,201.8,33.8,201.8,33.8z"/>
			</g>
			<path id="XMLID_490_" class="st6" d="M69.4,78.1c-5.9-0.3-18.8,3.8-23.3,9.5c-4.5,5.7,1.2,14.8,2.7,20.9
				c1.5,6.1-0.8,21.4-0.8,22.9c6.9,4.7,23.7,5.3,25.6-1.5c0.8-7.5-4.7-15.4-4.7-19.8C69.2,100.6,77.2,80.9,69.4,78.1z"/>
			<path id="XMLID_489_" class="st4" d="M64.3,79.4c3.1,13.3,2.1,27.7,1.4,33.3c-0.7,5.6-0.8,24.4-0.8,24.4c4.5-2.3,6.7-6.5,6.8-8.5
				c0.1-1.9-1.7-18.2-1.5-19.5c0.1-1.3,4.1-16.7,3.9-23.5c-0.2-6.8-4.7-7.6-4.7-7.6l-5.7,0L64.3,79.4z"/>
			<path id="XMLID_488_" class="st10" d="M69.6,64.3c0,0,0.5,3.4,0.6,6.1c0.1,4.4-0.7,8-3,9.7c-2.4,1.7-6.8,0.6-9-1.3
				c-2.2-1.9-3.6-6.4-3.7-10.6c0-4.3,1.7-9.5,7.8-9.2C68.5,59.3,69.6,64.3,69.6,64.3z"/>
			<path id="XMLID_487_" class="st10" d="M56.2,74c0,0,0.5,5.5-1,7.5c-0.1,1.4,3.7,7.1,7.6,6.1c2.3-0.6,2-3.2,2-3.2
				c-0.2-2,0-6.8,0-6.8L56.2,74z"/>
			<path id="XMLID_486_" class="st2" d="M69.1,59.9c-3.4-4.8-16.1-0.8-15,3.7c-4.9,1.6-1.7,14.3,4.1,15.2c0,0,2.7-2.7,2.5-3.4
				c-0.6,0.3-1.3,0.2-1.6-1.3c-0.6-2.6,1.1-4.3,3-1.4c0,0,0.3-2.3-1-5.5c0,0,6.6-0.6,8.7-2.5C70.9,63.8,71,62.6,69.1,59.9z"/>
			<path id="XMLID_485_" class="st4" d="M55,80.6c4.5,9.7,3.1,18.7,2.9,26.7c-0.2,8-4.3,30.3-4.3,30.3c-7.9-2-8.9-7.3-10.4-10
				c-3.7-18.6-1.3-35.6,2.2-41.2C48.1,82.1,55,80.6,55,80.6z"/>
			<path class="st2" d="M57.8,109.4c-2.3-6.6-4.3-15.7-8.2-17.6c-7.3-1.8-5.1,16.5-1.5,23.4c2.2,4.2,4.4,6.5,8,7.5
				C56.9,118,57.6,113,57.8,109.4z"/>
			<path id="XMLID_484_" class="st6" d="M56,79.4c0,0.2-1,1.3-1,1.3s2,4.4,2.7,6.3c0.7,1.9,2.6,3.5,2.6,3.5l2.6-2.8
				C59.3,85.8,56,79.4,56,79.4z"/>
			<path id="XMLID_483_" class="st6" d="M64.5,80.8c-0.2-0.3-0.8,5.4-1.7,6.9c1.6,1.6,2.6,2,2.6,2S66.5,83.3,64.5,80.8z"/>
			<g id="XMLID_448_">
				<polygon id="XMLID_482_" class="st12" points="54.6,130.9 119.9,168.6 200.7,121.9 135.4,84.2 				"/>
				<g id="XMLID_480_">
					<path id="XMLID_481_" class="st12" d="M59.5,132c-1.1,0.6-2.9,0.6-4,0c-1.1-0.6-1.1-1.7,0-2.3c1.1-0.6,2.9-0.6,4,0
						C60.6,130.4,60.6,131.4,59.5,132z"/>
				</g>
				<g id="XMLID_476_">
					<path id="XMLID_479_" class="st12" d="M199.8,123.1c-1.1,0.6-2.9,0.6-4,0c-1.1-0.6-1.1-1.7,0-2.3c1.1-0.6,2.9-0.6,4,0
						C200.9,121.4,200.9,122.4,199.8,123.1z"/>
					<path id="XMLID_478_" class="st13" d="M199.3,184.4c-0.8,0.5-2.1,0.5-2.9,0c-0.8-0.5-0.8-1.2,0-1.7c0.8-0.5,2.1-0.5,2.9,0
						C200.1,183.2,200.1,183.9,199.3,184.4z"/>
					<polygon id="XMLID_477_" class="st13" points="195,121.9 195.8,183.5 199.9,183.5 200.7,121.9 					"/>
				</g>
				<g id="XMLID_472_">
					<path id="XMLID_475_" class="st12" d="M121.7,167.9c-1.1,0.6-2.9,0.6-4,0c-1.1-0.6-1.1-1.7,0-2.3c1.1-0.6,2.9-0.6,4,0
						C122.8,166.3,122.8,167.3,121.7,167.9z"/>
					<path id="XMLID_474_" class="st13" d="M121.1,229.3c-0.8,0.5-2.1,0.5-2.9,0c-0.8-0.5-0.8-1.2,0-1.7c0.8-0.5,2.1-0.5,2.9,0
						C121.9,228,121.9,228.8,121.1,229.3z"/>
					<polygon id="XMLID_473_" class="st13" points="116.9,166.8 117.6,228.4 121.7,228.4 122.5,166.8 					"/>
				</g>
				<g id="XMLID_468_">
					<path id="XMLID_471_" class="st12" d="M137.3,87c-1.1,0.6-2.9,0.6-4,0c-1.1-0.6-1.1-1.7,0-2.3c1.1-0.6,2.9-0.6,4,0
						C138.4,85.4,138.4,86.4,137.3,87z"/>
					<path id="XMLID_470_" class="st12" d="M136.8,148.4c-0.8,0.5-2.1,0.5-2.9,0c-0.8-0.5-0.8-1.2,0-1.7c0.8-0.5,2.1-0.5,2.9,0
						C137.6,147.1,137.6,147.9,136.8,148.4z"/>
					<polygon id="XMLID_469_" class="st12" points="132.5,85.9 133.3,147.5 137.4,147.5 138.1,85.9 					"/>
				</g>
				<g id="XMLID_454_">
					<path id="XMLID_467_" class="st14" d="M221.7,107.7c0,7.1-4.3,13.8-13,18.8l-80.8,46.6c-19.3,11.1-53,9.7-75.3-3.1h0
						c-11.9-6.9-18.2-15.7-18.4-24.1l0,0l0,3.7l0,0c0.2,8.4,6.5,17.2,18.4,24.1l0,0c22.3,12.9,56,14.3,75.3,3.1l80.8-46.6
						c8.7-5,13-11.8,13-18.9l0,0L221.7,107.7L221.7,107.7z"/>
					<path id="XMLID_466_" class="st13" d="M52.7,170.1L52.7,170.1c22.3,12.9,56,14.3,75.3,3.1l80.8-46.6c8.7-5,13-11.8,13-18.8
						c0-8.6-6.2-17.6-18.4-24.7l0,0c-22.3-12.9-56-14.3-75.3-3.1l-80.8,46.6c-9,5.2-13.2,12.2-13,19.4
						C34.5,154.4,40.7,163.2,52.7,170.1z"/>
					<g id="XMLID_456_">
						<path id="XMLID_465_" class="st2" d="M197.1,121.3l-12.2-7l-20.5,11.9l-1.6,0.2v0.4c0,0.2,0.1,0.3,0.2,0.4l12.4,7.2
							c0.4,0.2,1,0.2,1.5-0.1l20.6-11.9c0.3-0.2,0.4-0.4,0.4-0.5v-0.7L197.1,121.3z"/>
						<g id="XMLID_462_">
							<path id="XMLID_464_" class="st4" d="M184.9,113.6l-22.1,12.8l-5.2-16.4c-0.2-0.5,0-1.1,0.4-1.3l20.9-12.1
								c0.4-0.2,0.8,0,1,0.5L184.9,113.6z"/>
							<polygon id="XMLID_463_" class="st15" points="183.7,113 163.3,124.8 158.6,110.3 179.3,98.4 							"/>
						</g>
						<g id="XMLID_457_">
							<path id="XMLID_461_" class="st4" d="M197.4,121.8l-20.6,11.9c-0.4,0.3-1.1,0.3-1.5,0.1l-12.6-7.3l22.1-12.8l12.6,7.3
								C197.9,121.1,197.9,121.5,197.4,121.8z"/>
							<path id="XMLID_460_" class="st4" d="M197.4,121.8l-20.6,11.9c-0.4,0.3-1.1,0.3-1.5,0.1l-12.6-7.3l22.1-12.8l12.6,7.3
								C197.9,121.1,197.9,121.5,197.4,121.8z"/>
							<polygon id="XMLID_459_" class="st16" points="191,118.4 171,129.9 165,126.5 185,114.9 							"/>
							<path id="XMLID_458_" class="st2" d="M188.2,125.6l-4.8,2.8c-0.3,0.2-0.7,0.2-0.9,0l-2.3-1.3c-0.2-0.1-0.2-0.4,0.1-0.5
								l4.8-2.8c0.3-0.2,0.7-0.2,0.9,0l2.3,1.3C188.5,125.2,188.5,125.4,188.2,125.6z"/>
						</g>
					</g>
					<path id="XMLID_455_" class="st17" d="M48.4,157.2c0.5-1,10-18.8,10-18.8l14.1,4.6c0,0-8.3,21.9-9.4,21.4
						C62,164,48.4,157.2,48.4,157.2z"/>
				</g>
				<polygon id="XMLID_453_" class="st17" points="78.1,119.5 89.7,110.7 110.7,112.6 98.6,121.6 				"/>
				<g id="XMLID_449_">
					<path id="XMLID_452_" class="st18" d="M92.2,153.6l-0.2,0c0,0-0.1,0-0.1-0.1l-9.7-5.6c-0.4-0.2-1.1-0.2-1.5,0.1l-13.1,7.5
						c-0.1,0-0.1,0.1-0.2,0.1l-0.2,0l0,0.3l0,0c0,0.1,0.1,0.3,0.3,0.4l9.7,5.6c0.4,0.2,1.1,0.2,1.5-0.1l13.1-7.5
						c0.2-0.1,0.4-0.3,0.4-0.5l0,0V153.6z"/>
					<path id="XMLID_451_" class="st19" d="M77.3,161.7l-9.7-5.6c-0.4-0.2-0.3-0.6,0.1-0.9l13.1-7.5c0.4-0.3,1.1-0.3,1.5-0.1
						l9.7,5.6c0.4,0.2,0.3,0.6-0.1,0.9l-13.1,7.5C78.4,161.9,77.7,161.9,77.3,161.7z"/>
					<polygon id="XMLID_450_" class="st20" points="78.3,161.1 68.7,155.6 81.7,148.1 91.2,153.6 					"/>
				</g>
			</g>
			<g id="XMLID_445_">
				<path id="XMLID_447_" class="st4" d="M71.1,78.8c5.5,2.5,4.2,17.1,8.4,20.8c2.4,2.1,14.1,4.8,17.3,4.8c1.3,2.6-1,5.5-1,5.5
					c-20-1.6-21.4-2.1-26-10.1C66.4,93.5,63.8,77.1,71.1,78.8z"/>
				<path id="XMLID_446_" class="st21" d="M96.3,105.3c0,0,5.4-0.6,6.4-0.2c1,0.5,3.3,1.9,4,2.5c0.6,0.7,2.7,2.4,1,2.8
					c-0.5,0.1-3.5-0.8-4.3-1.1c-0.8-0.4-2.3-0.8-2.3-0.4c0,0.4,3.8,1.4,3.3,2.2c-0.5,0.8-1.4,0.2-4.1-0.7c-2.7-0.9-5.3-1.3-5.3-1.3
					C94.4,107.1,95,105.9,96.3,105.3z"/>
			</g>
			<g id="XMLID_441_">
				<path id="XMLID_444_" class="st9" d="M87.7,108.4l-3.9,4.9c-0.1,0.1-0.1,0.4,0.1,0.5c0.1,0.1,0.4,0.1,0.5-0.1l3.9-4.9
					c0.1-0.1,0.1-0.4-0.1-0.5C88,108.2,87.8,108.2,87.7,108.4"/>
				<path id="XMLID_443_" class="st10" d="M80.5,110.9c1.7,0.9,4.6,0.3,4.6,0.7c0,0.3-0.6,1.3-1.8,1.3
					C82.1,112.8,80.5,110.9,80.5,110.9z"/>
				<path id="XMLID_442_" class="st10" d="M75.7,113.5c1-1.1,3.5-3.6,5.6-2.3c2,1.3,3.4,1.3,4,1.5c0.7-1,1.7-0.2,2.3,1.2
					s-3.6,3.2-4.3,3.7c-0.7,0.6-7.6-0.6-7.6-0.6V113.5z"/>
			</g>
			<g id="XMLID_439_">
				<path id="XMLID_440_" class="st4" d="M49.6,87.7c5.5,2.7,7.1,19.7,11.3,23.7c2.4,2.3,11.9,0.5,15.1,0.5c1.3,2.9-0.5,6.3-0.5,6.3
					c-18.3,2.2-23,1.7-27.6-7.1C44.5,104.2,42.3,85.8,49.6,87.7z"/>
			</g>
			<path id="XMLID_438_" class="st10" d="M203.6,45.8c-0.5-1.8-1.6-3.5-3.1-4.5c-0.4-0.3-0.9-0.5-1.3-0.7c-0.2-0.1-0.4-0.2-0.6-0.2
				c-0.2,0-0.5-0.1-0.7,0c-0.1,0.1-0.1,0.2,0,0.3c0.2,0.4,0.6,0.7,1,0.9c0.7,0.4,1,1,1.2,1.7c-0.7-0.7-1.3-1.4-2.1-2
				c-0.8-0.5-1.7-0.9-2.6-1.2c-0.4-0.1-0.8-0.3-1.2-0.2c-0.5,0.1-0.7,0.5-0.4,0.8c0.3,0.3,0.7,0.5,1.1,0.7c0.5,0.3,0.9,0.6,1.4,1
				c0.2,0.2,0.4,0.4,0.6,0.6c0.1,0.2,0.2,0.5,0.4,0.6c-0.5-0.2-1-0.5-1.5-0.7c-0.4-0.2-0.9-0.3-1.3-0.6c-0.4-0.2-0.7-0.5-1.1-0.7
				c-0.2-0.1-0.4-0.2-0.6-0.1c-0.1,0.1-0.2,0.3-0.2,0.4c0,0.2,0.1,0.3,0.2,0.5c0.2,0.4,0.5,0.6,0.9,0.8c0.3,0.2,0.6,0.4,0.9,0.6
				c0.4,0.3,0.8,0.5,1.1,0.8c0.2,0.1,0.4,0.3,0.5,0.5c0.1,0.1,0.3,0.4,0.5,0.5c-0.8-0.4-1.5-0.9-2.2-1.3c-0.3-0.2-0.6-0.4-0.8-0.6
				c-0.3-0.3-0.6-0.5-1-0.5c-0.1,0-0.2,0-0.3,0c-0.1,0.1-0.1,0.2-0.1,0.3c0,0.1,0.1,0.2,0.2,0.3c0.4,0.6,0.9,1.2,1.5,1.7
				c0.5,0.4,1.2,1.1,1.8,1.2c-0.9-0.2-1.7-0.6-2.4-1.2c-0.3-0.3-0.7-0.6-1.1-0.7c-0.1,0-0.3,0-0.4,0.1c-0.1,0.1,0,0.3,0.1,0.4
				c0.5,0.8,1.2,1.8,2.1,2.2c0.5,0.2,0.9,0.6,1.4,0.9c0.5,0.3,1,0.6,1.5,0.9c1.2,0.7,2.6,1.4,3.9,1.8c0.4,0.1,0.8,0.2,1.2,0.1
				c0.4,0,0.6-0.1,0.9-0.4c0.5-0.5,0.9-1.1,1.1-1.8c0.2-0.8,0.1-1.7-0.1-2.5C203.8,46.5,203.7,46.1,203.6,45.8z"/>
			<path id="XMLID_437_" class="st10" d="M191.5,46.5c-0.4-2.2-0.9-4.8-2.3-6.6c-0.1-0.1-0.1-0.2-0.2-0.2c-0.2-0.1-0.4,0.2-0.4,0.4
				c-0.1,0.6,0.2,1.3,0.4,1.9c0.2,0.7,0.2,1.5,0.1,2.2c0-0.1-0.1-0.1-0.1-0.2c-1.1-1.5-1.7-3.5-2.4-5.2c-0.1-0.2-0.2-0.4-0.4-0.4
				c-0.3,0-0.4,0.4-0.4,0.7c0,1.4,0.3,2.5,0.9,3.8c-0.6-0.9-1.1-1.9-1.5-2.9c-0.1-0.2-0.2-0.5-0.5-0.6c-1.1-0.1,0.3,4,0.5,4.6
				c-0.6-0.8-0.9-1.6-1.1-2.6c0-0.2-0.1-0.4-0.2-0.5c-0.1-0.2-0.4-0.4-0.6-0.2c-0.1,0.2-0.2,0.6-0.2,0.8c-0.1,0.6,0.1,1.2,0.3,1.8
				c0.3,0.8,0.8,1.6,1.1,2.4c-0.5-0.6-0.9-1.2-1.4-1.7c-0.1-0.1-0.2-0.3-0.4-0.2c-0.2,0-0.3,0.3-0.2,0.5c0.4,1.3,1.1,2.6,2,3.6
				c0.5,0.5,1,0.9,1.4,1.4c0.4,0.5,1,0.9,1.7,1.2c0.7,0.3,1.4,0.4,2.1,0.4c0.6,0,0.9-0.2,1.2-0.6c0.3-0.4,0.6-0.8,0.6-1.3
				C191.6,48.2,191.6,47.4,191.5,46.5z"/>
			<path id="XMLID_436_" class="st2" d="M204,45.4l9.1,3.1c-0.9-11.9,1.2-24.5,6.2-20c2.9,2.6,3,24.8,0.8,28.1
				c-2.2,3.3-11.7-1.4-18.3-4.8C201.6,49,204,45.4,204,45.4z"/>
			<g id="XMLID_433_">
				<path id="XMLID_435_" class="st10" d="M42.6,112c2.3-0.4,5.3-0.4,7.5,0.2c3.7,1.1,5.7,3.4,6.5,6.9c0.9,3.5,1.2,9.3-0.9,12.6
					c-1.3,2-4,1.7-6,1.1c-2.4-0.6-5.6-1.7-7.5-3.2c-2.8-2.1-4.2-6.6-4.4-9.9C37.7,116.9,39.1,112.6,42.6,112"/>
				<path id="XMLID_434_" class="st4" d="M39.7,112.6c-2.2,1.5-2,4.8-1.9,7.1c0.2,3.3,1.6,7.8,4.4,9.9c1.5,1.1,1.6,1.3,3.6,1.9
					c0.2-0.1,0.6-0.4,1.2-0.8c1.1-0.8,1.7-2.3,1.3-3.6c-0.4-1.3-0.5-2.9,0.3-3.3c1.2-0.7,2,1.7,2,1.7c0.7-0.3,1.8-1.1,1.2-2.5
					c-0.6-1.4,0-2.9,0-2.9c2.2,0,3.2-2.9,3.9-3.3c1.5-0.8,2-1.2,1.7-2.5c-0.2-0.9-0.5-1.8-1.2-2.5c-0.8-0.7-3.3-1.7-4.4-2
					C45.8,108.3,41.1,109.4,39.7,112.6z"/>
			</g>
			<path id="XMLID_432_" class="st4" d="M53.2,134.5c-5.4-2-11.7-5.6-20.5,1.4c-8.8,7-6.4,35.5-4.2,42c2.2,6.5,16.7,7,21.1,6.5
				s0.1-8.1,1.5-13.1C52.5,166.3,64,138.5,53.2,134.5z"/>
			<path id="XMLID_431_" class="st4" d="M56.1,135.6c2.3,1.4,8.2,18.7,8.2,18.7l2.1-13.6c0,0,4.9-2.3,7.7,0.8
				c-1.9,13.2-3,26.7-7.7,27.5c-4.7,0.8-12.4-11.7-16.6-17.8C45.6,145,49.1,131.4,56.1,135.6z"/>
			<polygon id="XMLID_430_" class="st9" points="70.4,132.6 74.8,129.3 75.9,129 75.4,129.7 70.7,133.2 			"/>
			<path id="XMLID_429_" class="st10" d="M67.4,141.5c0-0.4-1.7-4.6-1-6.1c0.7-1.5,1.5-2.5,1.5-2.5c0.7-2.4,2.7-2.1,4.3-0.6
				c1.6,1.6,3.8,5.4,0.9,8.6C70.2,143.5,67.4,141.5,67.4,141.5z"/>
			<g id="XMLID_426_">
				<path id="XMLID_428_" class="st5" d="M11.4,145.6c0,0,0,0.1,0,0.2c-1.7-0.2-3.7,1.3-4.5,3.4c-1.4,3.7,0.5,43.8,3.9,42.9
					c1.1,1.1,25,14.4,25,14.4l1.4-46.1C37.2,160.5,20.3,145.8,11.4,145.6z"/>
				<path id="XMLID_427_" class="st11" d="M35.8,206.5c-3.4,0.9-5.4-39.2-3.9-42.9s6.6-5.5,7.5,0.6
					C40.3,170.3,44.9,204.3,35.8,206.5z"/>
			</g>
			<g id="XMLID_423_">
				<path id="XMLID_425_" class="st10" d="M130.1,86.9c1.7,0.9,4.6,0.3,4.6,0.7s-0.6,1.3-1.8,1.3C131.7,88.9,130.1,86.9,130.1,86.9z
					"/>
				<path id="XMLID_424_" class="st10" d="M125.3,89.6c1-1.1,3.5-3.6,5.6-2.3c2,1.3,3.4,1.3,4,1.5c0.7-1,1.7-0.2,2.3,1.2
					s-3.6,3.2-4.3,3.7s-7.6-0.6-7.6-0.6V89.6z"/>
			</g>
			<g id="XMLID_374_">
				<path id="XMLID_422_" class="st2" d="M215.1,146.5c0,0-17.8-6.1-25.4-5.2c-7.5,0.9-5.9,33.5-5.9,33.5s4,0.7,8,0
					c1.7-9.1,4.4-19,4.4-19s16.4,4.7,18.8,2.4C217.6,155.8,215.1,146.5,215.1,146.5z"/>
				<g id="XMLID_398_">
					<line id="XMLID_421_" class="st3" x1="193.5" y1="181.7" x2="193.5" y2="181.8"/>
					<g id="XMLID_409_">
						<path id="XMLID_420_" class="st2" d="M192.8,187.9c0,0.2,0.1,0.4,0.3,0.6c0.3,0.3,0.6,0.5,1.1,0.6c0.6,0.2,1.4,0.2,2.1,0
							l8.8-2.3c1.5-0.4,3.1,0.1,3.5,1l1.9,5.4c0.2,0.7,1.3,1.1,2.4,1.1c0.1,0,0.3,0,0.4,0c0.8-0.1,1.4-0.3,1.8-0.7
							c0.2-0.2,0.3-0.4,0.3-0.6v0c0-0.1,0-0.2,0-0.3l-0.7-3.8l-0.3-1.7c-0.2-0.9,1.2-1.7,2.8-1.6l9.7,0.6c0.1,0,0.2,0,0.3,0
							c0.4,0,0.8-0.1,1.1-0.2c0.7-0.2,1.2-0.6,1.3-1.1c0.2-0.8-0.6-1.5-1.9-1.6l-9.5-1.1c-0.4,0-0.8-0.2-1.1-0.3
							c-0.8-0.4-1.2-1.1-0.7-1.7l3.4-4.2l0.7-0.9c0.1-0.2,0.2-0.3,0.2-0.5c0,0,0-0.1,0-0.1c0-0.5-0.5-1-1.3-1.3
							c-1.2-0.3-2.6-0.1-3.3,0.6l-4.8,4.9c-0.8,0.8-2.7,1-3.8,0.4l-7.1-3.8c-0.5-0.3-1.1-0.4-1.7-0.4c-0.6,0-1.3,0.1-1.8,0.4
							c-0.5,0.3-0.8,0.7-0.7,1.1c0,0.3,0.2,0.6,0.6,0.9l0.6,0.4l5.9,3.8c1.1,0.7,0.8,1.7-0.6,2.2c0,0,0,0-0.1,0l-8.4,2.8
							C193.3,186.9,192.8,187.4,192.8,187.9z"/>
						<path id="XMLID_417_" class="st2" d="M216.9,182.1l3.4-4.2c0.1-0.2,0.2-0.3,0.2-0.5v-2.5c0,0.2-0.1,0.3-0.2,0.5l-0.7,0.9
							l-3.4,4.2C215.8,181.1,216.1,181.7,216.9,182.1z"/>
						<path id="XMLID_416_" class="st2" d="M200.3,182.3c0,0,0-0.1,0-0.1c0,0,0-0.1,0-0.1V182.3z"/>
						<path id="XMLID_414_" class="st2" d="M214.3,187.3l0.3,1.7c0.5-0.5,1.4-0.8,2.4-0.7l9.7,0.6c0.1,0,0.2,0,0.3,0
							c1.2,0,2.3-0.5,2.5-1.2v-2.6c-0.1,0.5-0.6,0.8-1.3,1.1c-0.3,0.1-0.7,0.2-1.1,0.2c-0.1,0-0.2,0-0.3,0l-9.7-0.6
							C215.4,185.7,214.1,186.4,214.3,187.3z"/>
						<path id="XMLID_413_" class="st2" d="M209.2,192.2v0.5C209.3,192.5,209.3,192.3,209.2,192.2z"/>
						<path id="XMLID_412_" class="st2" d="M192.8,187.9v2.6c0,0.2,0.1,0.4,0.3,0.6c0.6,0.7,2,1,3.2,0.7l8.8-2.3
							c1.5-0.4,3.1,0.1,3.5,1l1.9,5.4c0.2,0.7,1.3,1.1,2.4,1.1c0.1,0,0.3,0,0.4,0c1.2-0.1,2-0.6,2.1-1.3c0,0,0-0.1,0-0.3v-2.3
							c0,0.2-0.2,0.4-0.3,0.6c-0.4,0.4-1,0.6-1.8,0.7c-0.1,0-0.3,0-0.4,0c-1.2,0-2.2-0.5-2.4-1.1l-1.9-5.4c-0.3-0.9-2-1.4-3.5-1
							l-8.8,2.3c-0.7,0.2-1.5,0.2-2.1,0c-0.5-0.1-0.8-0.3-1.1-0.6C192.9,188.3,192.8,188.1,192.8,187.9z"/>
						<path id="XMLID_411_" class="st2" d="M196,176.7v2.5c0,0.3,0.2,0.7,0.6,1l5.9,3.7c1.3-0.5,1.6-1.5,0.6-2.2l-5.9-3.8l-0.6-0.4
							C196.2,177.3,196,177,196,176.7z"/>
						<line id="XMLID_410_" class="st3" x1="200.3" y1="182.3" x2="200.3" y2="182.3"/>
					</g>
					<path id="XMLID_408_" class="st2" d="M193,192.6c0.1,1.2,1.1,2.1,2.4,2c1.2-0.1,2.1-1.1,2.1-2.3c-0.1-1.2-1.1-2.1-2.4-2
						C193.8,190.3,192.9,191.4,193,192.6z"/>
					<path id="XMLID_407_" class="st2" d="M210.6,198.1c0.1,1.2,1.1,2.1,2.4,2c1.2-0.1,2.1-1.1,2.1-2.3c-0.1-1.2-1.1-2.1-2.4-2
						C211.4,195.8,210.5,196.9,210.6,198.1z"/>
					<path id="XMLID_406_" class="st2" d="M225,190.1c0.1,1.2,1.1,2.1,2.4,2c1.2-0.1,2.1-1.1,2.1-2.3c-0.1-1.2-1.1-2.1-2.4-2
						C225.9,187.9,224.9,188.9,225,190.1z"/>
					<path id="XMLID_402_" class="st2" d="M216.9,180.9c0.1,1.2,1.1,2.1,2.4,2c1.2-0.1,2.1-1.1,2.1-2.3c-0.1-1.2-1.1-2.1-2.4-2
						S216.9,179.6,216.9,180.9z"/>
					<path id="XMLID_399_" class="st2" d="M195.2,181.8c0.1,1.2,1.1,2.1,2.4,2c1.2-0.1,2.1-1.1,2.1-2.3c-0.1-1.2-1.1-2.1-2.4-2
						C196,179.6,195.1,180.6,195.2,181.8z"/>
				</g>
				<path id="XMLID_397_" class="st4" d="M207.5,185.2c0,2.9,6.2,2.3,6.2,0v-20.3h-6.2V185.2z"/>
				<g id="XMLID_386_">
					<path id="XMLID_396_" class="st4" d="M186,164.7c1.6,1.5,20.5,12,24.1,13.9c0.4,0.2,1,0.3,1.4,0c0,0,0,0,0,0l0,0
						c2-1.3,3-5.7-0.8-8.5c-1.1-0.8-21.3-14.4-24.5-13.5h0c0,0-0.1,0-0.1,0c-0.1,0-0.2,0.1-0.3,0.2
						C184.2,158.1,184.3,163.2,186,164.7z"/>
					<path id="XMLID_387_" class="st2" d="M186.1,156.6c3.2-0.9,23.4,12.6,24.5,13.5c3.8,2.8,2.8,7.3,0.8,8.5l22.4-13l0.8-0.4l0,0
						c1.8-1.5,2.5-5.6-1.2-8.3c-1.1-0.8-21.8-14.7-24.6-13.4l-0.2,0.1L186.1,156.6z"/>
				</g>
				<path id="XMLID_384_" class="st10" d="M174.9,125.5c0,0-0.5-1.5-1.6-2.3c-1.1-0.8-2.6-1.9-3.4-1.5c-0.7,0.4,1.7,2.3,1.7,2.3
					c-2.6-1-5.1-1.2-6.2-1.3c-1.1-0.1-4.4,1.2-3.7,2.2c0.6,1,3.2,2.4,4.4,3c1.1,0.6,4.7,1.8,7.2,1.5
					C175.9,129,174.9,125.5,174.9,125.5z"/>
				<path id="XMLID_383_" class="st4" d="M215.1,148.9c0.8,12-12.8,17.7-32.3,12.3c0,0-1.3,5.5-5.1,22.2c-5.4,0.8-8.8,0-8.8,0
					s-0.6-32.6,8.8-34c9.4-1.4,28.1-1.6,28.1-2.1L215.1,148.9z"/>
				<g id="XMLID_380_">
					<path id="XMLID_382_" class="st10" d="M207.1,81.7c-2.3-0.4-5.3-0.4-7.5,0.2c-3.7,1.1-5.7,3.4-6.5,6.9
						c-0.9,3.5-1.2,9.3,0.9,12.6c1.3,2,4,1.7,6,1.1c2.4-0.6,5.6-1.7,7.5-3.2c2.8-2.1,4.2-6.6,4.4-9.9
						C212,86.5,210.5,82.2,207.1,81.7"/>
					<path id="XMLID_381_" class="st11" d="M209.9,82.3c2.2,1.5,2,4.8,1.9,7.1c-0.2,3.3-1.6,7.8-4.4,9.9c-1.5,1.1-1.6,1.3-3.6,1.9
						c-0.2-0.1-0.6-0.4-1.2-0.8c-1.1-0.8-1.7-2.3-1.3-3.6c0.4-1.3,0.5-2.9-0.3-3.3c-1.2-0.7-2,1.7-2,1.7c-0.7-0.3-1.8-1.1-1.2-2.5
						c0.6-1.4,0-2.9,0-2.9c-2.2,0-3.2-2.9-3.9-3.3c-1.5-0.8-2-1.2-1.7-2.5c0.2-0.9,0.5-1.8,1.2-2.5c0.8-0.7,3.3-1.7,4.4-1.9
						C203.9,78,208.5,79.1,209.9,82.3z"/>
				</g>
				<path id="XMLID_379_" class="st6" d="M195.5,104.1c4.7-3.3,10.9-7.6,19.6-0.6c8.8,7,8.1,37.6,6,44.1c-2.2,6.5-16.7,7-21.1,6.5
					c-4.3-0.6-0.1-8.1-1.5-13.1C197.1,136,186.1,110.7,195.5,104.1z"/>
				<path class="st22" d="M193.6,110.7c-0.5,0.3-1.1,1.3-1.8,2.7c-0.1,6,2,13.3,3.9,19c1.5-2.1,2.9-4.4,4.2-6.2
					C204,120.1,200.5,106.5,193.6,110.7z"/>
				<g id="XMLID_375_">
					<path id="XMLID_377_" class="st5" d="M238.3,115.3c0,0,0,0.1,0,0.2c1.7-0.2,3.7,1.3,4.5,3.4c1.4,3.7-0.5,43.8-3.9,42.9
						c-1.1,1.1-25,14.4-25,14.4l-1.4-46.1C212.4,130.1,229.3,115.5,238.3,115.3z"/>
					<path id="XMLID_376_" class="st4" d="M213.8,176.2c3.4,0.9,5.4-39.2,3.9-42.9s-6.6-5.5-7.5,0.6
						C209.4,139.9,204.7,173.9,213.8,176.2z"/>
				</g>
				<path id="XMLID_378_" class="st6" d="M194,106.1c-2.3,1.4-8.8,20.9-8.8,20.9l-9.9-2.9c-1.3,0-4.2,2.3-3.6,5.1
					c6.2,4.7,9.6,6.4,14.3,7.2c4.7,0.8,10.1-8.7,14.3-14.8C204.5,115.5,201,101.8,194,106.1z"/>
			</g>
			<g id="XMLID_364_">
				<path id="XMLID_373_" class="st2" d="M149.7,148.8l-12.2-7l-20.5,11.9l-1.6,0.2v0.4c0,0.2,0.1,0.3,0.2,0.4l12.4,7.2
					c0.4,0.2,1,0.2,1.5-0.1l20.6-11.9c0.3-0.2,0.4-0.4,0.4-0.5v-0.7L149.7,148.8z"/>
				<g id="XMLID_370_">
					<path id="XMLID_372_" class="st4" d="M137.5,141.1l-22.1,12.8l-5.2-16.4c-0.2-0.5,0-1.1,0.4-1.3l20.9-12.1c0.4-0.2,0.8,0,1,0.5
						L137.5,141.1z"/>
					<polygon id="XMLID_371_" class="st11" points="136.3,140.4 115.9,152.2 111.2,137.8 131.9,125.9 					"/>
				</g>
				<g id="XMLID_365_">
					<path id="XMLID_369_" class="st4" d="M150,149.2l-20.6,11.9c-0.4,0.3-1.1,0.3-1.5,0.1l-12.6-7.3l22.1-12.8l12.6,7.3
						C150.5,148.6,150.4,149,150,149.2z"/>
					<path id="XMLID_368_" class="st4" d="M150,149.2l-20.6,11.9c-0.4,0.3-1.1,0.3-1.5,0.1l-12.6-7.3l22.1-12.8l12.6,7.3
						C150.5,148.6,150.4,149,150,149.2z"/>
					<polygon id="XMLID_367_" class="st16" points="143.6,145.8 123.6,157.4 117.6,154 137.6,142.4 					"/>
					<path id="XMLID_366_" class="st2" d="M140.8,153l-4.8,2.8c-0.3,0.2-0.7,0.2-0.9,0l-2.3-1.3c-0.2-0.1-0.2-0.4,0.1-0.5l4.8-2.8
						c0.3-0.2,0.7-0.2,0.9,0l2.3,1.3C141.1,152.7,141.1,152.9,140.8,153z"/>
				</g>
			</g>
			<path id="XMLID_363_" class="st2" d="M34.7,180c-0.8,12,12.8,17.7,32.3,12.3c0,0,1.3,5.5,5.1,22.2c5.4,0.8,8.6-3.9,8.6-3.9
				s0.8-28.7-8.6-30.2c-9.4-1.4-28.1-1.6-28.1-2.1L34.7,180z"/>
			<g id="XMLID_360_">
				<path id="XMLID_362_" class="st10" d="M42.6,112c2.3-0.4,5.3-0.4,7.5,0.2c3.7,1.1,5.7,3.4,6.5,6.9c0.9,3.5,1.2,9.3-0.9,12.6
					c-1.3,2-4,1.7-6,1.1c-2.4-0.6-5.6-1.7-7.5-3.2c-2.8-2.1-4.2-6.6-4.4-9.9C37.7,116.9,39.1,112.6,42.6,112"/>
				<path id="XMLID_361_" class="st2" d="M39.7,112.6c-2.2,1.5-2.2,4.9-2.1,7.2c0.2,3.3,1.8,7.7,4.6,9.8c1.5,1.1,1.6,1.3,3.6,1.9
					c0.2-0.1,0.6-0.4,1.2-0.8c1.1-0.8,1.7-2.3,1.3-3.6c-0.4-1.3-0.5-2.9,0.3-3.3c1.2-0.7,2,1.7,2,1.7c0.7-0.3,1.8-1.1,1.2-2.5
					c-0.6-1.4,0-2.9,0-2.9c2.2,0,3.2-2.9,3.9-3.3c1.5-0.8,2-1.2,1.7-2.5c-0.2-0.9-0.5-1.8-1.2-2.5c-0.8-0.7-3.3-1.7-4.4-2
					C45.8,108.3,41.1,109.4,39.7,112.6z"/>
			</g>
			<path id="XMLID_359_" class="st23" d="M53.2,134.5c-5.4-2-11.7-5.6-20.5,1.4c-8.8,7-6.4,35.5-4.2,42c2.2,6.5,16.7,7,21.1,6.5
				s0.1-8.1,1.5-13.1C52.5,166.3,64,138.5,53.2,134.5z"/>
			<path id="XMLID_358_" class="st11" d="M56.1,135.6c2.3,1.4,8.2,18.7,8.2,18.7l2.1-13.6c0,0,4.9-2.3,7.7,0.8
				c-1.9,13.2-3,26.7-7.7,27.5c-4.7,0.8-12.4-11.7-16.6-17.8C45.6,145,49.1,131.4,56.1,135.6z"/>
			<polygon id="XMLID_357_" class="st9" points="70.4,132.6 74.8,129.3 75.9,129 75.4,129.7 70.7,133.2 			"/>
			<path id="XMLID_356_" class="st10" d="M67.4,141.5c0-0.4-1.7-4.6-1-6.1c0.7-1.5,1.5-2.5,1.5-2.5c0.7-2.4,2.7-2.1,4.3-0.6
				c1.6,1.6,3.8,5.4,0.9,8.6C70.2,143.5,67.4,141.5,67.4,141.5z"/>
			<g id="XMLID_353_">
				<path id="XMLID_355_" class="st5" d="M11.4,145.6c0,0,0,0.1,0,0.2c-1.7-0.2-3.7,1.3-4.5,3.4c-1.4,3.7,0.5,43.8,3.9,42.9
					c1.1,1.1,25,14.4,25,14.4l1.4-46.1C37.2,160.5,20.3,145.8,11.4,145.6z"/>
				<path id="XMLID_354_" class="st4" d="M35.8,206.5c-3.4,0.9-5.4-39.2-3.9-42.9s6.6-5.5,7.5,0.6C40.3,170.3,44.9,204.3,35.8,206.5
					z"/>
			</g>
			<g id="XMLID_312_">
				<path id="XMLID_352_" class="st4" d="M175.7,227.9l-7.6-0.7c0,0-4.9,1.4-7.7,1.8c-2.9,0.4-4.9-0.1-5.6,1
					c-0.1,0.2-0.2,0.4-0.2,0.7l0,0c0,0,0,0,0,0c0,0,0,0,0,0c-0.1,1.5,1.2,2.9,1.9,3.5c1.5,1.1,3.1,1.7,7.6,1.4
					c1.2-0.5,3.2-0.8,4,0.4c1.2,0.5,5.6,1.2,7.6,0v-1C176.9,233.7,175.7,227.9,175.7,227.9z"/>
				<path id="XMLID_351_" class="st24" d="M179,158.1c2.5,12.9-6.5,27-5.7,37.5c1,14.3,1.5,20.5,3,32.2c0,0-5.8,3.4-10.1-0.5
					c-4.4-22.8-6.3-26.9-5.7-68.6L179,158.1z"/>
				<g id="XMLID_348_">
					<path id="XMLID_350_" class="st10" d="M143.7,98.6c-2.6,3-0.4,15.3,3.2,18.3c3.6,3,6.6,1.9,9.7-0.7c3.1-2.7,4.9-9.3,4.2-14.2
						C159.8,95.1,151,90.1,143.7,98.6z"/>
					<path id="XMLID_349_" class="st4" d="M142.8,99.9c0,0-0.5,1.3-0.2,3.5s1.1,3.4,1.5,4.4c0.4,1,0.3,1.7,0.7,2.1
						c0.4,0.4,0.4-2.8,1.4-3.6c1-0.8,2.5,2.7,0.4,4.8c-0.3,2.1,2.5,5.7,3.5,6.3c1,0.6,5.2-0.1,7.8-2.6c2.6-2.6,3.2-6.7,3.8-12
						c0.6-5.3-3.4-7.1-3.4-7.1c-0.1-3.4-11.4-2.5-15.5-0.7C140.3,96.2,142.8,99.9,142.8,99.9z"/>
				</g>
				<path id="XMLID_347_" class="st10" d="M127.2,165.2c0,0-0.7,0.2-2.4,0.9c-1.7,0.7-5.2,0.9-7.4,0.6c-2.2-0.4-5.3-0.9-4.7-1.7
					c0.6-0.8,11.8-3.6,12.3-3.4C125.5,161.9,127.2,165.2,127.2,165.2z"/>
				<path id="XMLID_318_" class="st4" d="M161.2,234.8l-7.6-0.7c0,0-4.9,1.4-7.7,1.8c-2.9,0.4-4.9-0.1-5.6,1
					c-0.1,0.2-0.2,0.4-0.2,0.7h0c0,0,0,0,0,0c0,0,0,0,0,0c-0.1,1.5,1.2,2.9,1.9,3.5c1.5,1.1,3.1,1.7,7.6,1.4c1.2-0.5,3.2-0.8,4,0.4
					c1.2,0.5,5.6,1.2,7.6,0v-1C162.3,240.6,161.2,234.8,161.2,234.8z"/>
				<path id="XMLID_316_" class="st11" d="M173.3,161.3c0.8,13.2-10,27.6-10.6,38.2c-0.9,14.6-0.9,24.9-0.9,36.8
					c0,0-9.7,4.6-10.1-2.5c-1.4-23.3-3-29.4,3.1-71.9L173.3,161.3z"/>
				<path id="XMLID_315_" class="st2" d="M147.9,119.1c5.4-2.7,14.2-10.1,21.4-0.4c6.7,9.1,9.5,36.3,10.3,41.8
					c1,7.4-19.5,11.3-24,11.1c-1,0-1.7-0.5-2-1.5c-0.4-1.3,0.7-2.3,0.4-3.5c-0.2-0.7-0.6-1.3-1.1-1.9c-0.4-0.6-0.9-1.2-1-1.9
					c-0.2-1.2,0.6-2.3,0.7-3.4c0.1-0.9-0.1-1.7-0.4-2.5c-1.9-6.9-5.1-13.3-6.9-20.3c-1.2-4.7-3-12.2,0.9-16.1
					C146.7,119.8,147.3,119.2,147.9,119.1z"/>
				<path id="XMLID_314_" class="st2" d="M144.6,122.7c-4.3,13.7-4.7,20.6-9,26c-0.3,0.4-12,13-12,13s1.6,2.8,5.7,3.6
					c6.5-2.8,14-13.1,15.9-15.3c1.1-1.3,7.6-13.1,8.6-19.2C154.7,124.8,146.4,117.3,144.6,122.7z"/>
			</g>
			<path id="XMLID_394_" class="st2" d="M151.4,88.3l-12.2-7l-20.5,11.9l-1.6,0.2v0.4c0,0.2,0.1,0.3,0.2,0.4l12.4,7.2
				c0.4,0.2,1,0.2,1.5-0.1l20.6-11.9c0.3-0.2,0.4-0.4,0.4-0.5v-0.7L151.4,88.3z"/>
			<g id="XMLID_307_">
				<path id="XMLID_311_" class="st4" d="M151.7,88.8l-20.6,11.9c-0.4,0.3-1.1,0.3-1.5,0.1l-12.6-7.3l22.1-12.8l12.6,7.3
					C152.2,88.1,152.2,88.5,151.7,88.8z"/>
				<path id="XMLID_310_" class="st4" d="M151.7,88.8l-20.6,11.9c-0.4,0.3-1.1,0.3-1.5,0.1l-12.6-7.3l22.1-12.8l12.6,7.3
					C152.2,88.1,152.2,88.5,151.7,88.8z"/>
				<polygon id="XMLID_309_" class="st2" points="150.6,88.6 130.6,100.1 124.6,96.7 144.6,85.1 				"/>
				<path id="XMLID_308_" class="st2" d="M136.3,88.1l-4.8,2.8c-0.3,0.2-0.7,0.2-0.9,0l-2.3-1.3c-0.2-0.1-0.2-0.4,0.1-0.5l4.8-2.8
					c0.3-0.2,0.7-0.2,0.9,0l2.3,1.3C136.6,87.7,136.6,88,136.3,88.1z"/>
			</g>
			<g id="XMLID_305_">
				<path id="XMLID_306_" class="st7" d="M100.4,64.6c5.5,2.7,6,18.8,10.2,22.9c2.4,2.3,11.9,0.5,15.1,0.5c1.3,2.9-0.5,6.3-0.5,6.3
					c-18.1,0.9-20.3,1.4-24.9-7.4C96.8,80,93.1,62.7,100.4,64.6z"/>
			</g>
			<g id="XMLID_302_">
				<path class="st7" d="M136.9,83.4c-4.8-2.4-5.9-4.3-8.3-6.4c-4.2-3.7-5.9-18.4-9.4-20.2c-2.3-0.5-3.5,0.6-4,2.5
					c-0.1,0.4-0.2,0.8-0.2,1.3c-0.2,2.4,0.4,5.6,1.4,8.7c0.8,2.6,2,5,3.1,6.8c0.9,1.4,1.8,2.7,2.8,3.9c2.4,2.9,5.5,5.2,12.3,7.8
					C134.7,87.6,138.1,86,136.9,83.4z"/>
				<path id="XMLID_303_" class="st10" d="M134.9,87.1c0.1,0.3,1.1,1.3,1.9,2.3c0.8,1,2.2,2.6,2.6,2.2c0.4-0.4-0.4-2-0.4-2
					s2.5,2.4,2.9,3.1c0.4,0.8,0.2-1.5-0.4-2.5c1.6,2.4,2,3,2.1,2.4c0.1-0.6-1.2-3.9-1-3.6c1.8,2.8,2.5,3.1,2.3,1.9
					c-0.2-1.3-2-3.4-3.1-4c3.2,2.1,3.4,1.8,2.6,0.9c-0.8-0.9-3.7-3.2-7.7-3.7C134.3,86.3,134.9,87.1,134.9,87.1z"/>
			</g>
			<path id="XMLID_300_" class="st10" d="M137,92.1c-1-1.6-2.5-3.4-4.4-3.9c-1.3-0.4-2.7-0.1-4,0.3c-1,0.3-2.5,0.5-3.6,0.9
				c-0.5,1.2-0.7,2.3-0.7,3.4c0.2,0.1,0.4,0.1,0.7,0.2c1.1,0.1,2.2,0.5,3.3,0.5c0.7,0,1.9,0.2,2.6,0c-0.3,0.1-0.6,0.2-0.6,0.5
				c0,0.2,0.2,0.5,0.4,0.5c1.6,0.4,3-1.6,4-2.5C134.6,92.2,138.3,94.2,137,92.1z"/>
			<path id="XMLID_83_" class="st25" d="M119.9,40.6c0,0,0,0.1,0.1,0.1c0.7,1.1,0.8,2.5,0.7,3.8c-0.2,2.4-1.7,5.3-0.6,7.5
				c0.5,1,1.5,1.7,1.8,2.7c0.4,1.4-0.6,2.9-1.9,3.7c-1.6,1-3.6,1.4-5.3,0.8c-1.8-0.6-3.2-2.2-3.4-4c-0.3-2.2,1.1-4.3,2.4-6.2
				c0.7-1.1,1.7-2.5,1.8-3.8c0.1-1.2-0.6-2.3-0.3-3.6c0.2-0.9,0.7-1.9,1.6-2.2C117.8,38.9,119.2,39.6,119.9,40.6z"/>
			<path id="XMLID_301_" class="st10" d="M106.7,51c0,0,1.5,5.1-1.9,7.2c-0.1,1.2,3.4,6.5,6.9,5.6c2-0.5,3.1-3.4,3.1-3.4
				c-0.2-1.8-1.2-5.7-1.2-5.7L106.7,51z"/>
			<g id="XMLID_390_">
				<path id="XMLID_388_" class="st10" d="M118.6,40.7c0,0,0.9,3.2,0.6,5.7c-0.3,2.5-0.6,7.4-2.8,9s-5.4-0.3-7.5-2
					c-2.1-1.8-4.3-5.1-4.4-9c0-4,1.5-8.8,7.2-8.6C117.5,36.1,118.6,40.7,118.6,40.7z"/>
			</g>
			<path id="XMLID_60_" class="st25" d="M114.6,38.3c1.5,1.8,0.8,4-1.1,5.4c-0.9,0.6-1.9,1-2.8,1.7c-0.9,0.6-1.6,1.7-1.4,2.7
				c0.1,1,1,1.9,0.8,2.8c-0.2,0.8-1.1,1.3-1.2,2.1c-0.2,0.8,0.5,1.5,0.9,2.2c0.6,1.2,0.7,2.7,0.1,3.9c-1.3,2.8-4.7,2.6-7.2,1.4
				c-2.6-1.2-4.3-4.1-3.5-6.9c0.4-1.5,1.4-2.8,1.9-4.2c0.6-1.9,0.5-3.9,0.6-5.8c0.2-3.7,3-7.9,6.9-8.5
				C111.1,34.8,113,36.4,114.6,38.3z"/>
			<path id="XMLID_50_" class="st25" d="M116.5,36.1C116.5,36.1,116.5,36.1,116.5,36.1c-1.2-0.8-5.7-2.2-5.7,0.1
				c0,2.3,3.4,4.6,5.2,5.7c0.8,0.4,1.6,0.8,2.3,1.4c0.9,0.7,1,2.1,1.8,2.7c1.3-1.2,0.9-4.2,0.4-5.7
				C119.9,38.3,118.2,37.2,116.5,36.1z"/>
			<g id="XMLID_391_">
				<path id="XMLID_393_" class="st4" d="M151.7,88.8l-20.6,11.9l7.3-15.3c0.2-0.5,0.7-1.1,1.1-1.3l19.3-11.2c0.4-0.2,0.5,0,0.2,0.5
					L151.7,88.8z"/>
			</g>
			<line id="XMLID_49_" class="st3" x1="63.5" y1="227.4" x2="63.5" y2="227.3"/>
			<path class="st23" d="M50,133.2V132c0,0-3-1.9-6.1-2c-3.1-0.1-4.6,0.7-4.7,1c-0.1,0.4-0.2,1.4-0.2,1.4L50,133.2z"/>
			<path class="st25" d="M114,56c0,0-0.3,2.1-0.2,2.4c0.1,0.4,0.8,0.8,0.8,0.8h1.4L114,56z"/>
			<path class="st8" d="M123.1,69.3c-0.1-2.8-0.6-4.6-1.1-5.7c0,0.3,0,0.7,0.1,1c0.1,3.7-0.5,9-1.1,13.3c0.5,0.7,0.9,1.3,1.4,1.9
				C122.8,76.1,123.2,72.2,123.1,69.3z"/>
			<path class="st2" d="M74.1,86.3c0,4.2-1.4,11.1-2.5,16.2c0.4,0.7,0.9,1.3,1.3,1.8c1-4.9,2-10.7,1.9-14.2
				C74.8,88.6,74.5,87.3,74.1,86.3z"/>
		</g>
		<g id="XMLID_511_">
			<polygon id="XMLID_514_" class="st11" points="77.2,52.7 71.9,49.7 71.9,35.5 77.2,38.5 			"/>
			<polygon id="XMLID_513_" class="st26" points="68.9,48 63.7,45 63.7,25.3 68.9,28.4 			"/>
			<polygon id="XMLID_512_" class="st7" points="85.4,57.5 80.2,54.5 80.2,25.6 85.4,28.7 			"/>
		</g>
		<g id="XMLID_46_">
			<path id="XMLID_47_" class="st2" d="M155.7,41.8L155.7,41.8c0-1-0.7-2-2-2.7c-2.6-1.5-6.8-1.5-9.4,0c-1.3,0.8-1.9,1.7-1.9,2.7h0
				v6v0v0h0c0,1,0.7,2,2,2.7c2.6,1.5,6.8,1.5,9.4,0c1.3-0.8,1.9-1.7,1.9-2.7h0V41.8z"/>
			<path id="XMLID_313_" class="st7" d="M160.9,28.3c0.9-1.4,1.7-2.9,2.2-4.5c0.8-2.3,1.3-4.7,1.3-7.1c0.1-4.7-1.6-9.4-5.9-12.3
				c-0.3-0.2-0.7-0.4-1.1-0.6c-4-1.9-12.1-2.9-18.2,1.4c-3.4,1.4-6.9,7.1-5.7,13.5c0.7,3.9,2.2,7.7,4.4,11.1
				c2.1,3.3,3.9,6.3,4.5,10.2l0.1,0.2c-0.1,0.9,0.5,1.9,1.9,2.6c2.5,1.3,6.6,1.3,9.1,0c1.4-0.7,2-1.7,1.8-2.6c0.6-3.3,2-6,3.7-8.9
				C159.7,30.3,160.3,29.3,160.9,28.3z"/>
			<path id="XMLID_317_" class="st27" d="M147.3,38.9l-2.3-21.1l1.5,2.3c0.2,0.3,0.5,0.3,0.8,0.2l1.9-1.1l1.6,3.4
				c0.1,0.3,0.4,0.4,0.7,0.3l2-0.8l-2.9,18.6c0,0.3,0.2,0.6,0.5,0.7c0.3,0,0.6-0.2,0.7-0.5l3-19.6c0-0.2,0-0.4-0.2-0.5
				c-0.2-0.1-0.4-0.2-0.6-0.1l-2.4,0.9l-1.7-3.4c-0.1-0.1-0.2-0.3-0.3-0.3c-0.2,0-0.3,0-0.5,0l-2,1.1l-2.5-4
				c-0.1-0.2-0.4-0.3-0.7-0.2c-0.3,0.1-0.4,0.3-0.4,0.6l2.5,23.6c0,0.3,0.3,0.5,0.6,0.5C147.1,39.5,147.4,39.2,147.3,38.9
				L147.3,38.9z"/>
		</g>
		<g id="XMLID_385_">
			<path id="XMLID_395_" class="st11" d="M238.5,96.8c-0.7,0.6-1.5,1.2-2.3,1.6c-4,2.3-7.5,2-9.5-0.4l9.5-12.7L238.5,96.8z"/>
			<path id="XMLID_392_" class="st7" d="M247.5,78.8c0,6.3-3.9,13.8-9.1,18l-2.3-11.4V72.3C242.4,68.7,247.5,71.6,247.5,78.8z"/>
			<path id="XMLID_389_" class="st2" d="M236.2,72.3v13.1L226.7,98c-1.2-1.4-1.9-3.5-1.9-6.1C224.8,84.7,229.9,75.9,236.2,72.3z"/>
		</g>
		<path class="st0" d="M33.4,52.3c-2.5,4.3-0.2,8.2,4.8,8.5c4.7,0.3,9.9-3.3,12.3-7.2c1.4-2.3,2.3-6.5-0.5-8.2
			c-0.9-0.6-2-0.6-3.1-0.5C41.8,45.1,36.1,47.7,33.4,52.3z"/>
		<path class="st0" d="M171.1,34.2c0.4,0,0.8,0,1.2,0.1c2.9,0.9,2.3,4.9,0.2,6.4c-1.2,0.9-2.5,0.5-3.5-0.5
			C167,38.3,168.5,34.4,171.1,34.2z"/>
		<g>
			<defs>
				<path id="XMLID_41_" d="M211.5,223.3c-26.9,15.5-60.1,24.5-92.2,26.5c-0.5,0-0.9,0.1-1.4,0.1c-2.4,0.1-4.7,0.2-7.1,0.3
					c-0.5,0-0.9,0-1.4,0c-0.5,0-0.9,0-1.4,0c-0.5,0-1,0-1.5,0c-28.2,0.1-54.7-5.3-74.4-16.7C-12.4,207.8-4.4,161.4,50,130
					c54.4-31.4,134.7-36,179.3-10.2C273.9,145.6,265.9,191.9,211.5,223.3z"/>
			</defs>
			<clipPath id="XMLID_2_">
				<use xlink:href="#XMLID_41_"  style="overflow:visible;"/>
			</clipPath>
			<g class="st28">
				<path class="st13" d="M130.5,251.2c0,0-7.9-5.7-8.6-14.4c-0.5-6.6,4.8-9.1,9.8-1.4c0,0-7.3-11.8-0.6-15.9c5-3.1,7.6,5.8,7.6,5.8
					s-5-14.8,2.3-15.2c5.2-0.3,4.5,7.7,4.5,7.7s4.7-11.9,10.2-8.6L130.5,251.2z"/>
				<path class="st13" d="M155.8,209.3c0,0,7.1,2.7-2.5,13c0,0,7.1-4.7,9.8-0.2c2.6,4.5-13.2,9.5-13.2,9.5s8.5-2.2,9.4,3.6
					c0.9,5.7-16.1,7.3-16.1,7.3s6.9,0.1,7.7,4.1c0.8,4-14.4,8.1-20.2,4.6L155.8,209.3z"/>
				<path class="st19" d="M140.2,247.4c-1.2,0.1-2.4,0-3.6-0.1c-0.9-0.1-1.8-0.2-2.7-0.4l6-10.4c1.2,0.2,2.5,0.4,3.8,0.4
					c1.4,0.1,2.8,0,4.2-0.1c1.4-0.1,2.8-0.4,4.1-0.7c1.3-0.3,2.7-0.7,4-1.3c-1.3,0.5-2.6,0.8-4,1.1c-1.4,0.3-2.7,0.5-4.1,0.5
					c-1.4,0.1-2.8,0.1-4.1,0c-1.2-0.1-2.3-0.3-3.5-0.5l4.7-8.1c1.3-0.1,2.7-0.2,4-0.5c0.7-0.1,1.4-0.3,2-0.5c0.7-0.2,1.3-0.4,2-0.6
					c1.3-0.5,2.6-1,3.8-1.6c1.2-0.6,2.4-1.3,3.6-2.1c-1.2,0.8-2.4,1.4-3.6,2c-1.3,0.6-2.5,1.1-3.9,1.5c-0.7,0.2-1.3,0.4-2,0.5
					c-0.7,0.1-1.3,0.3-2,0.4c-1.2,0.2-2.4,0.3-3.5,0.3l9-15.6l-9.6,15.3c-0.5-1-1-2.1-1.4-3.2c-0.5-1.3-0.9-2.5-1.2-3.8
					c-0.3-1.3-0.6-2.6-0.8-3.9c-0.2-1.3-0.4-2.7-0.5-4c0,1.3,0.1,2.7,0.3,4c0.2,1.3,0.4,2.7,0.7,4c0.3,1.3,0.7,2.6,1.1,3.9
					c0.4,1.2,0.9,2.4,1.5,3.6l-5,8c-0.8-0.8-1.6-1.7-2.2-2.6c-0.7-1.1-1.4-2.3-2-3.5c-0.6-1.2-1.1-2.5-1.5-3.8
					c-0.4-1.3-0.8-2.6-1-3.9c0.2,1.3,0.5,2.7,0.9,4c0.4,1.3,0.8,2.6,1.3,3.8c0.5,1.2,1.2,2.5,1.9,3.6c0.7,1,1.4,2,2.3,2.9l-6.3,10.1
					c-0.7-0.8-1.3-1.6-1.9-2.5c-0.8-1.1-1.5-2.2-2.1-3.4c-0.7-1.2-1.3-2.3-1.8-3.5c-0.6-1.2-1.1-2.4-1.5-3.7
					c0.4,1.3,0.9,2.5,1.4,3.8c0.5,1.2,1.1,2.4,1.7,3.6c0.6,1.2,1.3,2.3,2,3.5c0.6,1,1.3,1.9,2,2.8l-7.4,11.8l1.6,0.9l7-12.1
					c1,0.2,2,0.3,3,0.3c1.2,0,2.4,0,3.6-0.1c1.2-0.1,2.4-0.3,3.6-0.5c1.2-0.2,2.4-0.5,3.5-0.8c-1.2,0.3-2.4,0.5-3.5,0.6
					C142.6,247.2,141.4,247.3,140.2,247.4z"/>
			</g>
			<g class="st28">
				<path class="st13" d="M66.9,252.4c0,0-6.8,2.6-12.6-0.6c-4.4-2.4-3.7-6.8,3.2-6.7c0,0-10.4-0.3-10.2-6.2
					c0.1-4.4,6.8-2.4,6.8-2.4s-11.4-3-8.6-7.7c2-3.4,6.7,0.4,6.7,0.4s-5.6-7.9-1.2-10L66.9,252.4z"/>
				<path class="st13" d="M51,219.2c0,0,4.6-3.4,7.1,7c0,0,0-6.4,3.9-6.2c3.9,0.2,0.5,12.3,0.5,12.3s2.2-6.2,6.1-4.4
					c4,1.8-2.1,13.2-2.1,13.2s2.9-4.2,5.8-3.1c2.8,1.1-0.8,12.4-5.5,14.6L51,219.2z"/>
				<path class="st19" d="M68.5,244.7c-0.5,0.8-1,1.5-1.5,2.2c-0.4,0.5-0.9,1.1-1.4,1.6l-4-8.1c0.6-0.7,1.3-1.4,1.8-2.2
					c0.6-0.8,1.2-1.7,1.6-2.7c0.5-0.9,0.9-1.9,1.3-2.9c0.4-1,0.7-2,0.8-3c-0.2,1-0.6,2-0.9,3c-0.4,1-0.8,1.9-1.4,2.8
					c-0.5,0.9-1.1,1.8-1.7,2.6c-0.5,0.7-1.1,1.4-1.7,2l-3.1-6.3c0.5-0.9,1-1.8,1.3-2.7c0.2-0.5,0.4-1,0.5-1.5c0.1-0.5,0.3-1,0.4-1.5
					c0.3-1,0.5-2,0.6-3.1c0.1-1,0.2-2.1,0.2-3.1c0,1-0.1,2.1-0.3,3.1c-0.2,1-0.4,2-0.7,3c-0.1,0.5-0.3,1-0.5,1.5
					c-0.2,0.5-0.4,1-0.6,1.4c-0.4,0.8-0.8,1.6-1.3,2.4l-6-12.1l5.7,12.3c-0.9-0.1-1.7-0.2-2.6-0.4c-1-0.2-2-0.5-2.9-0.8
					c-1-0.3-1.9-0.7-2.8-1.1c-0.9-0.4-1.8-0.9-2.7-1.4c0.9,0.5,1.7,1,2.7,1.5c0.9,0.4,1.8,0.9,2.8,1.2c0.9,0.4,1.9,0.7,2.9,0.9
					c0.9,0.3,1.9,0.4,2.9,0.5l3,6.4c-0.8,0.2-1.7,0.3-2.6,0.3c-1,0-2-0.1-3-0.2c-1-0.2-2-0.4-3-0.6c-1-0.3-1.9-0.6-2.9-1
					c0.9,0.4,1.9,0.8,2.8,1.1c1,0.3,2,0.6,3,0.7c1,0.2,2,0.3,3,0.3c0.9,0,1.8-0.1,2.8-0.3l3.7,8.2c-0.8,0.1-1.6,0.2-2.4,0.2
					c-1,0-2,0-3-0.1c-1-0.1-2-0.2-3-0.3c-1-0.1-2-0.3-2.9-0.6c1,0.3,1.9,0.5,2.9,0.7c1,0.2,2,0.3,3,0.4c1,0.1,2,0.2,3,0.2
					c0.9,0,1.7,0,2.6-0.1l4.4,9.5l1.2-0.6l-4.7-9.4c0.5-0.6,1-1.1,1.4-1.8c0.5-0.7,1-1.5,1.4-2.3c0.4-0.8,0.8-1.6,1.2-2.4
					c0.4-0.8,0.7-1.7,1-2.5c-0.3,0.9-0.7,1.7-1.1,2.5C69.4,243.2,68.9,244,68.5,244.7z"/>
			</g>
			<g class="st28">
				<path class="st13" d="M248.8,188.7c0,0-7.3-0.7-11.1-6.1c-2.9-4.1-0.3-7.7,5.8-4.7c0,0-9.2-4.8-6.5-10.1c2-3.9,7.1,0.9,7.1,0.9
					s-8.9-7.6-4.4-10.7c3.2-2.2,5.9,3.3,5.9,3.3s-1.5-9.5,3.3-9.5L248.8,188.7z"/>
				<path class="st13" d="M249.1,151.8c0,0,5.6-1,3.4,9.4c0,0,2.8-5.7,6.2-3.9c3.4,1.9-4.9,11.2-4.9,11.2s4.7-4.7,7.5-1.3
					c2.8,3.4-7.7,10.9-7.7,10.9s4.5-2.5,6.5-0.3c2.1,2.3-6.2,10.8-11.3,10.7L249.1,151.8z"/>
				<path class="st19" d="M253.6,182.5c-0.8,0.5-1.5,0.9-2.3,1.3c-0.6,0.3-1.3,0.6-1.9,0.8l-0.1-9c0.9-0.3,1.8-0.7,2.6-1.2
					c0.9-0.5,1.8-1.1,2.6-1.7c0.8-0.6,1.6-1.3,2.4-2c0.7-0.7,1.5-1.5,2.1-2.3c-0.6,0.8-1.4,1.6-2.2,2.2c-0.8,0.7-1.6,1.3-2.4,1.9
					c-0.9,0.6-1.7,1.1-2.7,1.6c-0.8,0.4-1.6,0.7-2.4,1l-0.1-7c0.8-0.6,1.6-1.2,2.4-1.8c0.4-0.3,0.8-0.7,1.1-1.1
					c0.4-0.4,0.7-0.8,1-1.2c0.7-0.8,1.3-1.6,1.9-2.5c0.6-0.9,1.1-1.8,1.5-2.7c-0.5,0.9-1,1.8-1.6,2.7c-0.6,0.9-1.2,1.7-1.9,2.4
					c-0.3,0.4-0.7,0.7-1.1,1.1c-0.4,0.3-0.8,0.7-1.2,1c-0.7,0.6-1.4,1.1-2.2,1.6l-0.1-13.5l-0.3,13.6c-0.7-0.5-1.5-0.9-2.1-1.5
					c-0.8-0.6-1.5-1.3-2.2-2c-0.7-0.7-1.4-1.5-2-2.2c-0.6-0.8-1.3-1.6-1.8-2.4c0.5,0.9,1.1,1.7,1.7,2.5c0.6,0.8,1.3,1.6,2,2.3
					c0.7,0.7,1.4,1.4,2.2,2.1c0.7,0.6,1.5,1.2,2.3,1.7l-0.2,7.1c-0.8-0.2-1.7-0.5-2.4-0.8c-0.9-0.4-1.8-0.9-2.6-1.5
					c-0.8-0.6-1.6-1.2-2.4-1.9c-0.8-0.7-1.5-1.4-2.2-2.1c0.6,0.8,1.3,1.5,2.1,2.2c0.7,0.7,1.5,1.4,2.3,2c0.8,0.6,1.7,1.1,2.6,1.6
					c0.8,0.4,1.7,0.7,2.6,1l-0.2,9c-0.7-0.3-1.5-0.5-2.2-0.9c-0.9-0.4-1.8-0.9-2.7-1.4c-0.9-0.5-1.7-1-2.5-1.6
					c-0.8-0.6-1.6-1.2-2.4-1.8c0.7,0.7,1.5,1.3,2.3,1.9c0.8,0.6,1.6,1.2,2.5,1.7c0.8,0.5,1.7,1,2.6,1.5c0.8,0.4,1.5,0.7,2.3,1
					l-0.2,10.5l1.4,0l-0.1-10.5c0.7-0.3,1.4-0.6,2.1-1c0.8-0.4,1.6-0.9,2.3-1.5c0.7-0.5,1.5-1.1,2.1-1.7c0.7-0.6,1.4-1.2,2-1.9
					c-0.6,0.6-1.3,1.2-2,1.8C255.1,181.4,254.3,182,253.6,182.5z"/>
			</g>
			<g class="st28">
				<path class="st13" d="M244,202.3c0,0-4.9,3.3-10.1,1.8c-3.9-1.1-4.2-4.7,1.3-5.9c0,0-8.3,1.7-9.3-3.1c-0.7-3.5,4.9-3.1,4.9-3.1
					s-9.6-0.3-8.2-4.5c0.9-3,5.4-0.9,5.4-0.9s-5.8-5.2-2.7-7.7L244,202.3z"/>
				<path class="st13" d="M225.3,178.8c0,0,3-3.5,6.9,4.2c0,0-1.1-5.1,2-5.7c3.1-0.6,2.6,9.6,2.6,9.6s0.6-5.3,4.1-4.6
					c3.5,0.7,0.7,10.8,0.7,10.8s1.5-3.9,4-3.5c2.5,0.4,1.6,10-1.7,12.6L225.3,178.8z"/>
				<path class="st19" d="M243.9,195.9c-0.2,0.7-0.5,1.4-0.8,2c-0.2,0.5-0.5,1-0.8,1.5l-4.7-5.7c0.4-0.7,0.7-1.4,1-2.1
					c0.3-0.8,0.6-1.6,0.8-2.4c0.2-0.8,0.4-1.7,0.5-2.5c0.1-0.8,0.2-1.7,0.1-2.5c0,0.8-0.1,1.7-0.2,2.5c-0.1,0.8-0.3,1.7-0.6,2.5
					c-0.2,0.8-0.5,1.6-0.9,2.4c-0.3,0.7-0.6,1.3-1,1.9l-3.6-4.4c0.2-0.8,0.5-1.6,0.6-2.4c0.1-0.4,0.1-0.8,0.2-1.3
					c0-0.4,0.1-0.8,0.1-1.3c0-0.8,0-1.7-0.1-2.5c-0.1-0.8-0.2-1.7-0.4-2.5c0.2,0.8,0.3,1.7,0.3,2.5c0.1,0.8,0.1,1.7,0,2.5
					c0,0.4-0.1,0.8-0.1,1.3c-0.1,0.4-0.1,0.8-0.2,1.2c-0.1,0.7-0.3,1.4-0.6,2.1l-7-8.5l6.7,8.8c-0.7,0.1-1.4,0.2-2.1,0.2
					c-0.8,0-1.6,0-2.5-0.1c-0.8-0.1-1.6-0.2-2.4-0.4c-0.8-0.2-1.6-0.4-2.4-0.6c0.8,0.3,1.6,0.5,2.4,0.7c0.8,0.2,1.6,0.3,2.4,0.5
					c0.8,0.1,1.6,0.2,2.5,0.2c0.8,0,1.6,0,2.4-0.1l3.5,4.6c-0.6,0.3-1.3,0.5-2,0.7c-0.8,0.2-1.6,0.3-2.4,0.4c-0.8,0.1-1.6,0.1-2.5,0
					c-0.8,0-1.6-0.1-2.5-0.2c0.8,0.2,1.6,0.3,2.5,0.3c0.8,0.1,1.7,0.1,2.5,0.1c0.8,0,1.7-0.1,2.5-0.3c0.7-0.2,1.4-0.4,2.1-0.7
					l4.5,5.8c-0.6,0.2-1.2,0.4-1.8,0.6c-0.8,0.2-1.6,0.4-2.4,0.5c-0.8,0.1-1.6,0.2-2.4,0.3c-0.8,0.1-1.6,0.1-2.4,0.1
					c0.8,0,1.6,0,2.4,0c0.8,0,1.6-0.1,2.4-0.2c0.8-0.1,1.6-0.2,2.4-0.4c0.7-0.1,1.3-0.3,2-0.6l5.2,6.8l0.9-0.7l-5.4-6.6
					c0.3-0.5,0.6-1.1,0.8-1.7c0.3-0.7,0.5-1.4,0.7-2.1c0.2-0.7,0.4-1.4,0.5-2.2c0.1-0.7,0.2-1.5,0.3-2.2c-0.1,0.7-0.2,1.5-0.4,2.2
					C244.3,194.5,244.1,195.2,243.9,195.9z"/>
			</g>
			<g class="st28">
				<path class="st29" d="M92.2,204.2c0.8,1.8,3.1,3,6.3,4c0.6,2.4,1.6,4.7,1.8,7.1c0.2-0.8,0.3-1.7,0.3-2.5c0-1.4-0.2-2.8-0.4-4.1
					c1.4,0.4,2.9,0.7,4.5,1.1c1,2.6,1.3,5.5,1.2,8.3c0,2.1-0.3,4.1-0.6,6.1c0.5-0.8,1-1.7,1.4-2.5c0.4-0.9,0.8-1.8,1.1-2.7
					c0.2-0.9,0.3-1.9,0.3-2.8c0-1.9-0.2-3.9-0.5-5.8c1.7,0.4,3.5,0.8,5.3,1.2c0.1,0.5,0.2,0.9,0.3,1.4c0.8,4.7,0.3,9.5-1.3,13.9
					c0.2-0.2,0.3-0.4,0.4-0.6c0.8-1.1,1.5-2.2,2.2-3.4c0.4-0.8,0.8-1.6,1-2.5c0.7-2.6,0.2-5.3-0.1-8.1c2,0.6,3.9,1.3,5.6,2.1
					c0,1.7-0.1,3.4-0.2,5.1c-0.1,0.8-0.1,1.5-0.3,2.3c-0.2,1-0.6,1.9-0.9,2.8c-1.4,3.7-3.1,7.4-5.5,10.5c0.6-0.4,1.1-1,1.7-1.5
					c4.7-4.7,7.4-11.2,7.9-17.9c1.5,0.9,2.9,2,4,3.3c0.7,0.8,1.3,1.6,1.9,2.4c0,1.9-0.2,3.9-0.5,5.8c-0.3,1.5-0.6,3-1.3,4.3
					c-0.4,0.8-1,1.5-1.5,2.2c-2.8,3.5-6.3,6.4-9.9,9.1c5.6-1.8,10.8-5.4,14-10.3c0.9-1.4,1.7-2.9,2.5-4.3c1.7,5.8,0.8,11.8-3.7,16.4
					c-7,7.2-16.9,4.6-16.9,4.6L92.2,204.2z"/>
				<path class="st29" d="M112.1,249.3c0,0-6.5,10.5-17.2,10.2c-5.5-0.1-10.1-4.1-13-8.9c1.1,0.5,2.2,0.9,3.3,1.2
					c3.4,1,7,0.7,10.4-0.3c2.4-0.7,4.7-1.7,6.9-2.9c-2.4,0.3-4.9,0.4-7.4,0.4c-1.3,0-2.6,0.1-3.9-0.2c-1.2-0.2-2.3-0.7-3.4-1.1
					c-1.3-0.5-2.6-1-3.8-1.7c-2.3-1.3-4.2-3.1-5.8-5.2c-0.2-1.2-0.2-2.3,0-3.3c0.2-1.4,0.5-2.7,0.8-4.1c0.8,0.7,1.5,1.5,2.3,2.2
					c0.8,0.8,1.7,1.6,2.6,2.3c1,0.7,2,1.3,3.1,1.7c3.4,1.5,7.1,2.2,10.8,2.1c-1.7-0.4-3.4-1-5-1.7c-1.4-0.6-2.7-1.4-4.1-2.2
					c-1.2-0.7-2.4-1.4-3.6-2.2c-2-1.4-3.7-3-5.3-4.8c0.6-1.7,1.3-3.3,2-4.9c1,1.4,2.1,2.6,3.3,3.7c2.3,2.1,5.1,3.6,8.2,3.8
					c0.5,0.1,1,0.1,1.6,0.1c-2.8-1.1-5.4-2.6-7.8-4.5c-0.7-0.5-1.3-1.1-1.8-1.8c-1-1.1-1.7-2.4-2.3-3.8c0.8-1.5,1.6-3,2.5-4.4
					c1.2,2.1,2.8,3.9,4.7,5.3c1.5,1.1,3.1,1.9,4.9,2.4c-1.4-0.9-2.6-2.1-3.6-3.4c-1.8-2.3-3-5-3.9-7.7c0.6-1,1.2-2,1.8-3
					c1,1.8,2.4,3.3,3.9,4.6c-1.4-1.9-2.4-3.9-3.1-6.2c1.7-3.1,2.6-5.5,1.9-7.1L112.1,249.3z"/>
				<path class="st19" d="M122.3,243.4c-0.9,0.5-1.8,0.9-2.7,1.3c-0.9,0.3-1.9,0.7-2.9,0.9c-1.8,0.4-3.7,0.6-5.6,0.5l-1.9-4.1
					c2.1-0.8,4.1-1.8,5.9-3c0.5-0.3,1-0.7,1.5-1c0.5-0.4,0.9-0.7,1.4-1.1c0.9-0.8,1.7-1.6,2.5-2.5c1.6-1.8,2.8-3.8,3.8-5.9
					c1-2.2,1.7-4.4,1.9-6.8c-0.3,2.3-1,4.6-2,6.7c-1,2.1-2.3,4.1-3.9,5.8c-0.8,0.9-1.6,1.7-2.5,2.4c-0.4,0.4-0.9,0.7-1.4,1.1
					c-0.5,0.3-1,0.7-1.5,1c-1.9,1.2-3.9,2.1-5.9,2.9l-2.3-5.1l2.1-1.6c0.7-0.6,1.5-1.3,2.2-1.9l1-1c0.2-0.2,0.4-0.3,0.5-0.5l0.5-0.6
					c0.3-0.4,0.6-0.7,1-1.1l0.9-1.2c1.1-1.6,2-3.4,2.6-5.2c0.6-1.9,1-3.8,0.7-5.8c0.1,2-0.3,3.9-0.9,5.7c-0.7,1.8-1.6,3.5-2.7,5.1
					l-0.9,1.2c-0.3,0.4-0.6,0.7-1,1.1l-0.5,0.5c-0.2,0.2-0.4,0.3-0.5,0.5l-1.1,1c-0.7,0.6-1.5,1.2-2.3,1.8l-2.1,1.4l-1.8-3.9
					c0.5-0.6,1-1.2,1.5-1.8l0.7-1c0.1-0.2,0.3-0.3,0.4-0.5l0.3-0.5l0.7-1.1l0.6-1.1c0.1-0.2,0.2-0.4,0.3-0.6l0.2-0.6
					c0.1-0.4,0.3-0.8,0.4-1.2c0.6-1.6,0.9-3.2,1-4.9c0.1-1.7,0.1-3.3-0.3-4.9c0.3,1.6,0.3,3.3,0.1,4.9c-0.2,1.6-0.6,3.2-1.2,4.8
					c-0.1,0.4-0.3,0.8-0.5,1.1l-0.2,0.6c-0.1,0.2-0.2,0.4-0.3,0.5l-0.6,1.1l-0.7,1l-0.3,0.5c-0.1,0.2-0.2,0.3-0.4,0.5l-0.8,1
					c-0.4,0.5-0.9,1-1.4,1.5l-2.8-6.1l0.1,0c0.4-1.1,0.7-2.2,0.9-3.3c0.2-1.1,0.4-2.2,0.4-3.4c0.2-2.2,0.2-4.5,0-6.7
					c0.1,2.2,0,4.5-0.3,6.7c-0.1,1.1-0.3,2.2-0.6,3.3c-0.2,0.9-0.5,1.8-0.8,2.6l-6-13.2l5.8,13.5c-1.1-0.1-2.2-0.4-3.3-0.8
					c-1.2-0.5-2.3-1.1-3.3-1.9c-1-0.8-1.9-1.7-2.8-2.6c-0.8-1-1.6-2-2.3-3.1c0.6,1.1,1.4,2.2,2.2,3.2c0.8,1,1.7,1.9,2.7,2.8
					c1,0.8,2.1,1.5,3.3,2.1c1.2,0.6,2.5,0.9,3.8,1l2.6,6.1c-0.7,0.1-1.5,0.1-2.2,0.1c-0.9,0-1.7-0.1-2.6-0.3
					c-1.7-0.3-3.4-0.9-4.9-1.6c-1.6-0.7-3.1-1.6-4.6-2.5c-1.4-1-2.8-2-4.1-3.2c1.2,1.2,2.6,2.3,4,3.4c1.4,1,2.9,1.9,4.5,2.7
					c1.6,0.8,3.3,1.4,5,1.7c0.9,0.2,1.8,0.3,2.6,0.4c0.8,0,1.6,0,2.5-0.1l1.7,4c-1.9,0.7-3.9,1.2-5.9,1.2c-2.1,0.1-4.3-0.2-6.4-0.8
					c-2.1-0.6-4.1-1.4-6-2.4c-1.9-1-3.7-2.2-5.4-3.6c1.6,1.4,3.4,2.7,5.3,3.8c1.9,1.1,3.9,2,6,2.6c2.1,0.6,4.3,1,6.5,1
					c2.1,0,4.2-0.4,6.1-1.1l2.2,5.2c-2,1.1-4.2,2.1-6.5,2.7c-1.2,0.3-2.4,0.5-3.6,0.6c-1.2,0.1-2.5,0.1-3.7,0
					c-2.5-0.2-4.9-0.8-7.2-1.7c-1.1-0.5-2.3-1-3.3-1.7c-1.1-0.6-2.1-1.4-3-2.2c0.9,0.8,1.9,1.6,3,2.3c1.1,0.7,2.2,1.3,3.3,1.8
					c2.3,1,4.7,1.7,7.2,1.9c1.2,0.1,2.5,0.1,3.8,0c1.3-0.1,2.5-0.3,3.7-0.6c2.3-0.6,4.5-1.4,6.6-2.5l1.8,4.1
					c-1.3,1.7-2.8,3.2-4.5,4.5c-0.4,0.4-0.9,0.7-1.4,1c-0.5,0.3-0.9,0.6-1.4,0.9c-1,0.6-2,1-3.1,1.4c-2.1,0.8-4.4,1.1-6.6,1.2
					c-2.3,0-4.5-0.3-6.7-1c2.1,0.8,4.4,1.1,6.7,1.2c2.3,0,4.6-0.3,6.7-1c1.1-0.4,2.1-0.8,3.2-1.3c0.5-0.2,1-0.6,1.5-0.8
					c0.5-0.3,1-0.6,1.4-1c1.7-1.2,3.2-2.6,4.5-4.2l5.1,12l1.2-0.5l-5.4-11.8c1.8,0,3.6-0.2,5.4-0.7c1-0.3,2-0.6,2.9-1
					c0.9-0.4,1.9-0.8,2.7-1.4c1.8-1,3.4-2.3,4.8-3.7c1.5-1.4,2.8-2.9,3.9-4.7c-1.1,1.7-2.5,3.2-4,4.5
					C125.7,241.2,124,242.4,122.3,243.4z"/>
			</g>
			<g class="st28">
				<g>
					<path class="st29" d="M219.9,193.3c0.3,1,0.1,2.2,0.1,3.3c0,1.2-0.1,2.3,0.4,3.4c0.4,1,2.1,0.7,2.3-0.3
						c0.3-1.3-0.2-2.5-0.7-3.6c-0.2-0.5-0.5-1-0.8-1.4c-0.3-0.5-0.7-0.9-1-1.4C220.1,193,219.8,193.1,219.9,193.3L219.9,193.3z"/>
				</g>
				<g>
					<path class="st29" d="M213.5,198.5c1,0.6,1.3,1.8,1.8,2.8c0.5,1,1.2,2.5,2.5,2.7c1,0.1,1.7-0.8,1.2-1.7
						c-0.3-0.6-0.8-0.9-1.3-1.3c-0.4-0.4-0.8-0.8-1.3-1.3c-0.4-0.4-0.9-0.7-1.4-1c-0.4-0.3-0.9-0.5-1.4-0.7
						C213.4,198,213.3,198.4,213.5,198.5L213.5,198.5z"/>
				</g>
				<g>
					<path class="st29" d="M229,194.1c-0.5,0.1-0.8,0.3-1.2,0.7c-0.4,0.4-0.7,0.9-1,1.3c-0.3,0.4-0.7,0.9-1.1,1.4
						c-0.4,0.6-1.2,1.2-1.3,1.9c-0.2,0.9,0.5,1.9,1.5,1.6c1.3-0.4,2.3-2.2,2.6-3.5c0.1-0.5,0.1-1,0.2-1.5c0.1-0.4,0.1-1.2,0.5-1.5
						C229.4,194.3,229.2,194,229,194.1L229,194.1z"/>
				</g>
				<g>
					<path class="st29" d="M210.8,207.2c0.4,0.3,1,0.4,1.4,0.5c0.6,0.2,1.2,0.4,1.8,0.5c1.4,0.2,3-0.2,4.2-0.8
						c0.8-0.4,0.7-1.9-0.3-2.1c-1.4-0.2-2.6,0.6-4,0.7c-0.6,0-1.2,0.1-1.8,0.2c-0.5,0.1-1.2,0.2-1.5,0.7
						C210.7,206.9,210.7,207.1,210.8,207.2L210.8,207.2z"/>
				</g>
				<g>
					<path class="st29" d="M231.9,204.7c-0.5,0-1.1-0.4-1.6-0.6c-0.6-0.3-1.1-0.6-1.7-0.8c-0.7-0.3-1.1-0.5-1.8-0.8
						c-0.8-0.3-1.8-0.2-2,0.8c-0.3,1.7,2.3,2.3,3.5,2.3c0.7,0,1.3-0.1,2-0.2c0.5-0.1,1-0.3,1.5-0.5C232,204.8,232,204.7,231.9,204.7
						L231.9,204.7z"/>
				</g>
				<g>
					<path class="st29" d="M228.7,210.5c-0.2-0.7-0.8-1.4-1.2-2.1c-0.4-0.8-0.8-1.8-1.4-2.4c-0.8-0.8-2.4,0-2,1.2
						c0.4,1.1,1.3,1.8,2.2,2.4c0.6,0.5,1.5,1.1,2.4,1.1C228.7,210.7,228.7,210.6,228.7,210.5L228.7,210.5z"/>
				</g>
				<g>
					<path class="st29" d="M217.7,213.1c0.2-0.3,0.5-0.5,0.8-0.8c0.4-0.4,0.7-0.8,1.1-1.2c0.7-0.8,1.9-1.9,1.7-3
						c-0.2-0.7-1.1-1.1-1.7-0.7c-0.5,0.3-0.8,0.9-1.1,1.4c-0.3,0.5-0.6,1-0.9,1.5c-0.4,0.8-0.9,1.8-0.4,2.7
						C217.4,213.2,217.6,213.2,217.7,213.1L217.7,213.1z"/>
				</g>
				<path class="st19" d="M230.5,204.8c-1.6,0-3-0.8-4.5-1.2c-1.1-0.3-2.4-0.2-3.5,0.1c0.1-0.3,0.3-0.5,0.5-0.7
					c0.7-0.7,1.3-1.5,1.8-2.3c0.6-0.9,1.2-1.8,1.8-2.7c0.3-0.5,0.6-0.9,0.8-1.4c0.2-0.4,0.3-0.9,0.7-1.2c0,0,0-0.1-0.1-0.1
					c-0.3,0.2-0.4,0.6-0.6,0.9c-0.3,0.6-0.6,1.1-1,1.6c-0.7,1-1.4,2.1-2.1,3.1c-0.3,0.5-0.7,0.9-1.1,1.4c-0.3,0.4-0.7,0.7-1,1.1
					c0,0.1-0.1,0.1-0.1,0.2c0-0.2,0-0.4-0.1-0.6c-0.1-0.8-0.3-1.7-0.4-2.5c-0.1-0.8-0.2-1.7-0.4-2.5c-0.2-1-0.6-2-0.9-3
					c0-0.1-0.1,0-0.1,0c0.3,0.9,0.6,1.8,0.8,2.7c0.2,0.9,0.2,1.7,0.3,2.6c0.1,0.8,0.3,1.7,0.4,2.5c0.1,0.4,0.1,0.9,0.1,1.3
					c-1.3-0.4-2.7-0.4-3.8-1.2c-1.2-0.7-2.1-1.9-2.8-3.1c0,0-0.1,0,0,0c0.7,1.2,1.5,2.3,2.6,3.1c1.1,0.8,2.5,1.1,3.8,1.4
					c-1.2,0.8-2.6,1.2-4,1.6c-1.5,0.4-3.1,0.9-4.6,1.1c-0.1,0,0,0.1,0,0.1c1.6-0.2,3.2-0.7,4.8-1.1c1.4-0.3,2.7-0.7,3.9-1.4
					c-0.1,0.3-0.1,0.6-0.2,0.9c-0.3,0.7-0.7,1.3-1,1.9c-0.8,1.3-1.6,2.6-2.4,4c0,0,0,0,0,0c0.8-1.3,1.8-2.5,2.5-3.8
					c0.4-0.6,0.7-1.2,1-1.8c0.1-0.2,0.2-0.5,0.3-0.7c0,0.2,0,0.3,0,0.5c0.1,1.2,0.4,2.4,0.6,3.6c0.3,1.9,0.5,3.8,0.7,5.6
					c0.3,1.9,0.4,3.9,0.5,5.9c0.1,1.9,0.1,3.8,0.6,5.6c0.2,0.8,1.4,0.5,1.2-0.3c-0.4-1.9-0.6-3.7-0.7-5.6c-0.2-1.9-0.5-3.6-0.8-5.5
					c-0.3-1.8-0.6-3.6-1-5.4c-0.3-1.4-0.7-2.8-0.8-4.2c0,0,0.1-0.1,0.1-0.1c0-0.1,0-0.1,0-0.2c0.7,0.9,1.9,1.4,2.6,2.2
					c0.5,0.5,0.9,0.9,1.3,1.5c0.4,0.5,0.7,0.9,1.2,1.3c0.1,0,0.1-0.1,0.1-0.1c-0.6-0.4-1-1-1.4-1.5c-0.3-0.4-0.7-0.8-1.1-1.2
					c-0.9-0.9-2-1.5-2.7-2.6c0-0.1,0-0.1,0-0.2c0,0,0-0.1,0-0.1c0,0,0,0,0,0c1.3-0.5,2.8-0.5,4.1-0.1
					C227.9,204.3,229.1,204.9,230.5,204.8C230.6,204.8,230.6,204.8,230.5,204.8z"/>
			</g>
		</g>
	</g>
</g>
</svg>
